<?xml version="1.0" encoding="UTF-8"?>
<svg xmlns="http://www.w3.org/2000/svg" xmlns:xlink="http://www.w3.org/1999/xlink" width="2668.5pt" height="1500.74996pt" viewBox="0 0 2668.5 1500.74996" version="1.2">
<defs>
<clipPath id="clip1">
  <path d="M 724 92.90625 L 1954 92.90625 L 1954 1407.386719 L 724 1407.386719 Z M 724 92.90625 "/>
</clipPath>
<clipPath id="clip2">
  <path d="M 733 95 L 1952 95 L 1952 1407.386719 L 733 1407.386719 Z M 733 95 "/>
</clipPath>
<clipPath id="clip3">
  <path d="M 648.070312 185.304688 L 2020.226562 185.304688 L 2020.226562 1185 L 648.070312 1185 Z M 648.070312 185.304688 "/>
</clipPath>
</defs>
<g id="surface1">
<g clip-path="url(#clip1)" clip-rule="nonzero">
<path style=" stroke:none;fill-rule:nonzero;fill:rgb(96.469116%,51.368713%,41.958618%);fill-opacity:1;" d="M 724.570312 611.75 C 724.570312 974.238281 897.078125 1407.386719 1259.769531 1407.386719 C 1622.449219 1407.386719 1953.695312 1056.472656 1953.695312 693.972656 C 1953.695312 331.484375 1733.878906 235.460938 1389.558594 121.5625 C 1043.191406 6.988281 724.570312 249.25 724.570312 611.75 "/>
</g>
<g clip-path="url(#clip2)" clip-rule="nonzero">
<path style=" stroke:none;fill-rule:nonzero;fill:rgb(100%,100%,100%);fill-opacity:1;" d="M 733.847656 439.355469 L 742.238281 455.957031 L 750.929688 451.039062 C 767.746094 441.519531 789.101562 447.980469 797.816406 465.222656 L 830.523438 530.035156 C 831.703125 556.695312 831.078125 581.492188 827.671875 601.980469 C 821.519531 639.085938 809.878906 675.769531 797.5625 714.59375 C 779.507812 771.5 760.96875 829.9375 758.464844 894.183594 C 759.40625 898.007812 760.332031 901.835938 761.296875 905.648438 C 761.886719 837.300781 781.457031 775.566406 800.5 715.519531 C 812.851562 676.585938 824.527344 639.808594 830.714844 602.488281 C 833.855469 583.539062 834.652344 560.941406 833.84375 536.617188 L 841.511719 551.800781 L 955.304688 485.183594 C 968.027344 530.382812 972.867188 574.898438 957.167969 616.238281 C 945.722656 646.375 932.082031 677.332031 917.652344 710.105469 C 862.183594 836.023438 804.824219 966.226562 867.695312 1060.082031 C 923.851562 1143.914062 945.515625 1219.410156 952.980469 1274.828125 C 954.136719 1276.003906 955.339844 1277.148438 956.507812 1278.316406 C 949.488281 1222.140625 927.992188 1144.5625 870.257812 1058.371094 C 808.324219 965.914062 865.335938 836.503906 920.46875 711.34375 C 934.925781 678.535156 948.574219 647.542969 960.046875 617.320312 C 976.140625 574.960938 971.097656 529.566406 958.046875 483.570312 L 1014.324219 450.628906 C 1044.175781 433.148438 1055.300781 395.476562 1039.710938 364.605469 L 1001.070312 288.050781 L 906.289062 341.710938 C 892.503906 302.753906 882.019531 263.746094 882.539062 225.96875 C 881.464844 226.992188 880.429688 228.027344 879.382812 229.050781 C 879.457031 266.441406 889.941406 304.882812 903.554688 343.261719 L 816.910156 392.324219 C 812.359375 366.589844 807.554688 342.9375 803.390625 323.6875 C 802.621094 324.9375 801.8125 326.179688 801.054688 327.441406 C 805.113281 346.34375 809.710938 369.1875 814.066406 393.925781 L 801.390625 401.109375 Z M 829.34375 821.9375 C 829.089844 822.34375 828.8125 822.800781 828.609375 823.453125 C 828.5 823.753906 828.296875 824.316406 828.1875 825.113281 C 828.03125 826.277344 828.308594 827.324219 828.945312 828.167969 C 829.597656 829.011719 830.523438 829.550781 831.582031 829.695312 L 832.183594 829.730469 C 833.207031 829.730469 834.183594 829.441406 835.15625 828.839844 C 835.890625 828.421875 836.578125 827.746094 837.179688 826.832031 C 837.625 826.027344 838.082031 825.0625 838.117188 823.835938 C 838.203125 822.730469 837.972656 821.660156 837.421875 820.683594 C 836.722656 819.492188 835.445312 818.746094 834.074219 818.746094 C 833.398438 818.746094 832.738281 818.929688 832.160156 819.253906 L 831.871094 819.445312 C 831.292969 819.816406 830.90625 820.167969 830.546875 820.503906 C 830.160156 820.828125 829.847656 821.238281 829.644531 821.515625 Z M 848.808594 800.617188 C 849.265625 798.160156 849.433594 795.949219 849.300781 793.867188 C 849.179688 791.941406 847.566406 790.414062 845.628906 790.414062 C 843.898438 790.511719 842.621094 791.496094 842.140625 792.929688 L 841.5 794.890625 C 841.128906 796.070312 840.765625 797.234375 840.34375 798.390625 L 840.1875 798.835938 C 839.609375 800.410156 839.035156 801.964844 838.371094 803.480469 C 837.699219 805.128906 836.9375 806.679688 836.179688 808.242188 L 836.046875 808.53125 C 835.542969 809.542969 835 810.566406 834.445312 811.589844 L 833.398438 813.574219 C 832.941406 814.441406 832.835938 815.476562 833.136719 816.4375 C 833.4375 817.410156 834.097656 818.207031 835 818.675781 C 835.53125 818.953125 836.144531 819.109375 836.757812 819.109375 C 837.660156 819.109375 838.539062 818.785156 839.238281 818.195312 C 840.828125 816.785156 842.285156 815.101562 843.714844 812.984375 C 844.871094 811.3125 845.917969 809.375 846.871094 807.101562 C 847.832031 804.71875 848.445312 802.625 848.808594 800.617188 Z M 830.546875 742.976562 C 833.714844 747.078125 836.214844 751.289062 838.023438 755.511719 C 839.996094 759.820312 841.417969 764.511719 842.308594 769.539062 C 843.136719 774.242188 843.378906 779.175781 843.007812 784.230469 C 842.863281 786.300781 844.425781 788.117188 846.507812 788.273438 L 846.785156 788.273438 C 848.554688 788.273438 850.109375 787.019531 850.480469 785.289062 C 851.625 779.921875 851.839844 774.171875 851.09375 768.214844 C 850.421875 762.828125 848.867188 757.316406 846.496094 751.828125 C 843.921875 746.269531 840.839844 741.445312 837.3125 737.417969 C 833.375 732.90625 828.96875 729.222656 824.203125 726.503906 L 823.492188 726.082031 L 822.375 726.011719 C 821.0625 726.011719 819.847656 726.71875 819.195312 727.851562 C 818.292969 729.425781 818.691406 731.460938 820.121094 732.566406 C 824.09375 735.683594 827.609375 739.183594 830.546875 742.976562 Z M 1420.820312 434.734375 L 1409.613281 194.242188 C 1409.203125 185.570312 1403.726562 177.964844 1395.636719 174.789062 C 1363.207031 162.085938 1277.222656 138.167969 1199.90625 201.980469 C 1194.238281 206.671875 1191.433594 214 1192.273438 221.300781 L 1220.730469 466.066406 C 1220.730469 466.066406 1287.3125 387.117188 1420.820312 434.734375 Z M 1115.933594 612.808594 C 1114.800781 607.636719 1112.609375 604.664062 1109.421875 603.953125 C 1108.867188 603.832031 1108.386719 603.773438 1107.941406 603.773438 C 1107.265625 603.773438 1106.722656 603.917969 1106.289062 604.207031 C 1104.617188 605.3125 1103.96875 608.863281 1103.222656 612.976562 C 1102.113281 619.042969 1100.730469 626.597656 1095.3125 633.007812 C 1088.34375 641.273438 1087.246094 650.46875 1089.761719 654.929688 C 1090.449219 656.144531 1091.726562 657.515625 1093.890625 657.191406 C 1097.191406 656.675781 1103.871094 648.566406 1111.78125 635.523438 C 1116.101562 628.402344 1117.582031 620.328125 1115.933594 612.808594 Z M 1094.375 660.234375 C 1093.988281 660.296875 1093.601562 660.320312 1093.230469 660.320312 C 1090.703125 660.320312 1088.5 658.949219 1087.078125 656.433594 C 1083.984375 650.949219 1085.007812 640.445312 1092.964844 631.023438 C 1097.851562 625.238281 1099.140625 618.128906 1100.1875 612.425781 C 1101.101562 607.417969 1101.824219 603.472656 1104.582031 601.644531 C 1106.039062 600.683594 1107.832031 600.453125 1110.082031 600.945312 C 1114.546875 601.945312 1117.535156 605.710938 1118.941406 612.148438 C 1120.761719 620.449219 1119.160156 629.316406 1114.417969 637.125 C 1105.542969 651.753906 1098.804688 659.539062 1094.375 660.234375 Z M 1106.316406 522.382812 C 1110.382812 537.601562 1109.144531 547.394531 1107.832031 557.765625 C 1107.109375 563.445312 1106.363281 569.328125 1106.363281 576.582031 C 1106.363281 586.484375 1110.601562 591.382812 1114.800781 591.839844 C 1119.027344 592.296875 1124.191406 588.410156 1126.320312 578.710938 C 1130.703125 558.824219 1117.460938 518.339844 1117.328125 517.929688 C 1117.316406 517.90625 1117.304688 517.882812 1117.304688 517.859375 C 1114.980469 509.546875 1110.851562 506.117188 1108.359375 506.117188 C 1108.144531 506.117188 1107.941406 506.140625 1107.746094 506.199219 C 1105.074219 506.933594 1103.714844 512.722656 1106.316406 522.382812 Z M 1106.941406 503.230469 C 1111.308594 502.027344 1117.292969 506.371094 1120.265625 516.992188 C 1120.964844 519.121094 1133.867188 558.789062 1129.332031 579.375 C 1126.933594 590.261719 1120.796875 594.953125 1115.4375 594.953125 C 1115.113281 594.953125 1114.789062 594.929688 1114.464844 594.894531 C 1108.890625 594.292969 1103.28125 588.398438 1103.28125 576.582031 C 1103.28125 569.125 1104.039062 563.15625 1104.773438 557.382812 C 1106.097656 546.878906 1107.253906 537.808594 1103.328125 523.175781 C 1099.839844 510.148438 1102.894531 504.324219 1106.941406 503.230469 Z M 952.621094 693.515625 C 952.234375 694.261719 952.753906 694.679688 952.992188 694.839844 C 953.234375 694.980469 953.847656 695.257812 954.363281 694.585938 C 970 673.675781 990.285156 643.105469 998.15625 616.191406 C 1007.257812 585.078125 1000.792969 549.09375 996.125 530.40625 C 995.929688 529.648438 995.304688 529.625 995.050781 529.636719 C 994.847656 529.648438 994.160156 529.769531 994.101562 530.589844 C 992.933594 545.398438 992.066406 566.417969 994.582031 582.503906 C 997.53125 601.355469 969.554688 660.140625 952.621094 693.515625 Z M 991.03125 530.347656 C 991.1875 528.289062 992.742188 526.738281 994.800781 526.570312 C 996.832031 526.425781 998.613281 527.664062 999.121094 529.660156 C 1003.863281 548.648438 1010.410156 585.234375 1001.105469 617.054688 C 993.113281 644.414062 972.613281 675.3125 956.832031 696.425781 C 955.953125 697.59375 954.75 698.085938 953.59375 698.085938 C 952.800781 698.085938 952.019531 697.859375 951.367188 697.449219 C 949.515625 696.304688 948.886719 694.054688 949.863281 692.117188 C 966.644531 659.082031 994.355469 600.984375 991.535156 582.972656 C 988.972656 566.597656 989.851562 545.3125 991.03125 530.347656 Z M 1030.753906 206.574219 C 1030.753906 171.914062 1043.285156 141.355469 1054.589844 120.828125 C 1053.132812 121.335938 1051.699219 121.886719 1050.257812 122.40625 C 1039.230469 143.21875 1027.671875 173.007812 1027.671875 206.574219 C 1027.671875 233.933594 1030.058594 254.398438 1031.789062 269.34375 C 1034.136719 289.484375 1034.847656 297.734375 1028.816406 299.324219 C 1028.335938 299.457031 1027.722656 299.011719 1027.289062 298.613281 C 1016.019531 288.050781 1002.070312 204.230469 1008.402344 139.765625 C 1007.316406 140.285156 1006.222656 140.800781 1005.128906 141.316406 C 998.953125 207.164062 1013.375 289.785156 1025.183594 300.851562 C 1026.480469 302.078125 1027.6875 302.441406 1028.636719 302.441406 C 1028.996094 302.441406 1029.324219 302.378906 1029.613281 302.308594 C 1038.449219 299.960938 1037.242188 289.601562 1034.847656 268.980469 C 1033.125 254.109375 1030.753906 233.753906 1030.753906 206.574219 Z M 1627.683594 220.699219 C 1628.898438 217.859375 1630.25 214.757812 1631.933594 211.398438 C 1631.007812 210.980469 1630.066406 210.558594 1629.128906 210.136719 C 1627.433594 213.519531 1626.070312 216.644531 1624.855469 219.496094 C 1619.8125 231.324219 1616.765625 238.457031 1595.855469 243.679688 C 1580.160156 247.601562 1557.492188 276.863281 1540.941406 298.230469 C 1533.914062 307.3125 1526.015625 317.503906 1523.054688 319.488281 C 1523.089844 318.382812 1523.476562 315.769531 1525.390625 309.707031 C 1535.296875 278.339844 1573.226562 226.28125 1596.605469 196.023438 C 1595.605469 195.613281 1594.59375 195.207031 1593.59375 194.785156 C 1570.074219 225.199219 1532.550781 276.800781 1522.453125 308.769531 C 1519.167969 319.175781 1519.539062 321.667969 1521.382812 322.628906 C 1521.730469 322.808594 1522.089844 322.917969 1522.476562 322.917969 C 1525.402344 322.917969 1529.976562 317.417969 1543.386719 300.117188 C 1559.648438 279.101562 1581.941406 250.332031 1596.605469 246.664062 C 1618.992188 241.070312 1622.460938 232.972656 1627.683594 220.699219 Z M 898.246094 1042.480469 C 893.816406 1027.105469 887.796875 1006.457031 884.269531 995.523438 C 880.597656 984.117188 877.9375 968.945312 876.363281 958.226562 C 876.195312 957.09375 875.339844 956.601562 874.59375 956.515625 C 873.847656 956.421875 872.90625 956.722656 872.496094 957.769531 C 867.960938 969.355469 862.601562 992.476562 877.6875 1017.25 C 884.113281 1027.789062 889.820312 1036.847656 894.636719 1044.152344 C 895.34375 1045.210938 896.40625 1045.222656 897.164062 1044.875 C 897.921875 1044.523438 898.605469 1043.707031 898.246094 1042.480469 Z M 896.261719 1048.160156 C 894.609375 1048.160156 893.046875 1047.339844 892.058594 1045.847656 C 887.21875 1038.507812 881.5 1029.425781 875.050781 1018.851562 C 859.28125 992.945312 864.878906 968.765625 869.621094 956.648438 C 870.476562 954.472656 872.605469 953.171875 874.941406 953.449219 C 877.265625 953.714844 879.070312 955.457031 879.40625 957.78125 C 880.972656 968.378906 883.597656 983.371094 887.207031 994.570312 C 890.746094 1005.554688 896.777344 1026.226562 901.207031 1041.625 C 901.929688 1044.105469 900.785156 1046.59375 898.449219 1047.664062 C 897.730469 1048.003906 896.996094 1048.160156 896.261719 1048.160156 Z M 839.804688 1092.710938 C 832.304688 1085.058594 824.746094 1077.335938 817.4375 1069.140625 C 818.808594 1072.195312 820.207031 1075.230469 821.601562 1078.273438 C 826.898438 1083.9375 832.269531 1089.414062 837.601562 1094.863281 C 862.964844 1120.71875 889.183594 1147.464844 903.867188 1191.292969 C 908.476562 1205.035156 911.5 1217.90625 913.351562 1229.972656 C 914.628906 1231.5625 915.90625 1233.136719 917.179688 1234.714844 C 915.410156 1221.011719 912.113281 1206.199219 906.792969 1190.320312 C 891.878906 1145.816406 865.40625 1118.816406 839.804688 1092.710938 Z M 1738.742188 989.976562 C 1646.980469 1083.664062 1678.253906 1170.117188 1682.203125 1179.804688 L 1699.523438 1179.804688 C 1701.726562 1167.710938 1721.109375 1074.640625 1804.902344 998.84375 C 1868.675781 941.164062 1894.640625 848.308594 1904.871094 772.257812 L 1894.425781 785.636719 L 1859.40625 758.316406 L 1825.472656 801.746094 C 1825.472656 801.746094 1815.902344 795.011719 1800.941406 783.472656 C 1802.675781 876.90625 1793.320312 934.234375 1738.742188 989.976562 Z M 1731.59375 853.878906 C 1729.246094 800.976562 1720.363281 766.253906 1711.753906 732.664062 C 1708.867188 721.34375 1705.941406 709.902344 1703.257812 697.703125 C 1652.648438 645.957031 1609.460938 584.96875 1627.589844 539.730469 L 1691.710938 589.769531 C 1691.675781 581.71875 1691.785156 573.285156 1692.0625 564.394531 C 1695.273438 461.132812 1761.335938 360.898438 1798.738281 312.160156 C 1799.519531 312.824219 1800.316406 313.472656 1801.097656 314.132812 C 1763.925781 362.597656 1698.320312 462.105469 1695.144531 564.492188 C 1694.828125 574.238281 1694.734375 583.441406 1694.804688 592.1875 L 1793.71875 669.367188 C 1794.679688 545.230469 1889.667969 493.484375 1919.222656 480.40625 C 1919.582031 481.355469 1919.933594 482.332031 1920.28125 483.292969 C 1890.957031 496.3125 1796.558594 547.890625 1796.8125 671.773438 L 1906.679688 757.519531 C 1910.375 724.542969 1911.230469 695.609375 1911.167969 675.445312 C 1911.121094 658.046875 1931.34375 641.625 1951.191406 629.6875 C 1951.289062 630.855469 1951.363281 632.046875 1951.445312 633.214844 C 1932.703125 644.65625 1914.203125 659.886719 1914.25 675.429688 C 1914.308594 696.078125 1913.417969 725.84375 1909.519531 759.734375 L 1912.710938 762.226562 L 1908.582031 767.507812 C 1898.757812 845 1872.851562 941.527344 1806.972656 1001.128906 C 1718.484375 1081.171875 1702.484375 1180.574219 1702.339844 1181.574219 C 1702.222656 1182.332031 1701.582031 1182.882812 1700.8125 1182.882812 L 1681.179688 1182.882812 C 1680.578125 1182.882812 1680.023438 1182.535156 1679.769531 1181.992188 C 1679.351562 1181.066406 1638.074219 1088.355469 1736.539062 987.820312 C 1790.78125 932.441406 1799.726562 875.101562 1797.800781 781.054688 C 1774.421875 762.898438 1739.695312 734.382812 1707.347656 701.863281 C 1709.71875 712.246094 1712.234375 722.113281 1714.738281 731.90625 C 1723.382812 765.640625 1732.304688 800.519531 1734.675781 853.746094 C 1736.636719 897.984375 1714.078125 939.890625 1690.183594 984.25 C 1659.101562 1041.9375 1626.972656 1101.589844 1645.453125 1172.667969 L 1642.464844 1173.453125 C 1623.6875 1101.191406 1656.117188 1041 1687.464844 982.792969 C 1711.152344 938.808594 1733.53125 897.273438 1731.59375 853.878906 Z M 1554.109375 447.910156 C 1554.28125 447.308594 1553.871094 447.042969 1553.628906 446.933594 C 1553.519531 446.898438 1553.390625 446.863281 1553.246094 446.863281 C 1553.027344 446.863281 1552.773438 446.945312 1552.582031 447.285156 C 1546.226562 458.460938 1543.914062 475.59375 1543.097656 487.996094 C 1542.964844 490.054688 1541.449219 491.644531 1539.402344 491.871094 C 1537.320312 492.113281 1535.464844 490.871094 1534.875 488.886719 C 1531.132812 476.328125 1528.421875 475.691406 1527.917969 475.691406 C 1527.484375 475.691406 1525.171875 476.207031 1522.199219 486.3125 C 1511.546875 522.492188 1539.570312 621.328125 1560.585938 637.078125 C 1565.570312 640.804688 1569.171875 642.140625 1570.988281 640.9375 C 1578.257812 636.113281 1569.121094 594.96875 1558.167969 551.222656 C 1544.710938 497.503906 1549.851562 463.429688 1554.109375 447.910156 Z M 1572.683594 643.5 C 1571.675781 644.175781 1570.554688 644.464844 1569.386719 644.464844 C 1565.8125 644.464844 1561.765625 641.804688 1558.734375 639.53125 C 1536.609375 622.953125 1508.066406 523.40625 1519.238281 485.433594 C 1521.8125 476.6875 1524.570312 472.609375 1527.90625 472.609375 C 1531.421875 472.632812 1534.695312 477.496094 1537.835938 488.007812 C 1538.078125 488.851562 1538.824219 488.839844 1539.050781 488.816406 C 1539.328125 488.78125 1539.96875 488.625 1540.027344 487.792969 C 1540.859375 475.0625 1543.253906 457.449219 1549.910156 445.757812 C 1550.910156 444 1552.917969 443.3125 1554.808594 444.09375 C 1556.675781 444.867188 1557.613281 446.777344 1557.085938 448.714844 C 1552.90625 463.960938 1547.875 497.441406 1561.152344 550.476562 C 1577.320312 615.023438 1580.234375 638.496094 1572.683594 643.5 Z M 1015.746094 762.585938 C 993.464844 782.351562 976.621094 803.828125 970.207031 845.671875 C 967.679688 862.203125 970.894531 887.265625 977.054688 917.679688 C 988.574219 855.730469 1002.886719 796.539062 1015.746094 762.585938 Z M 1151 1071.148438 C 1144.929688 1048.664062 1138.492188 1024.214844 1132.160156 999.132812 C 1118.386719 1035.1875 1107.363281 1062.042969 1107.363281 1062.042969 Z M 975.585938 925.703125 C 968.363281 891.632812 964.367188 863.46875 967.160156 845.214844 C 974.179688 799.496094 993.234375 777.660156 1018.222656 756.339844 C 1022.078125 747.003906 1025.785156 740.113281 1029.191406 736.394531 C 1042.011719 722.402344 1063.507812 707.902344 1085.09375 695.332031 C 1092.507812 686.65625 1099.945312 676.898438 1107.300781 665.625 C 1153.550781 594.761719 1140.71875 550.691406 1112.609375 454.105469 C 1103.027344 421.1875 1092.171875 383.878906 1081.132812 337.246094 C 1058.273438 240.660156 1093.351562 173.042969 1126.804688 133.316406 C 1139.539062 118.207031 1152.996094 105.886719 1165.140625 96.238281 C 1167.054688 96.042969 1168.96875 95.828125 1170.894531 95.648438 C 1157.933594 105.585938 1143.054688 118.785156 1129.089844 135.386719 C 1096.132812 174.5625 1061.582031 241.25 1084.128906 336.535156 C 1095.15625 383.097656 1106 420.371094 1115.570312 453.238281 C 1143.945312 550.753906 1156.898438 595.269531 1109.878906 667.3125 C 1104.183594 676.035156 1098.441406 683.851562 1092.699219 690.988281 C 1124.429688 673.167969 1154.128906 660.234375 1154.152344 660.222656 C 1176.675781 646.832031 1199.207031 640.855469 1210.886719 639.699219 C 1226.652344 638.136719 1268.796875 649.046875 1302.273438 658.769531 C 1350.0625 672.640625 1389.796875 706.507812 1409.828125 752.046875 C 1415.992188 766.039062 1421.625 781.75 1426.476562 799.136719 C 1433.375 823.835938 1482.453125 854.902344 1482.332031 887.46875 C 1482.308594 893.136719 1481.390625 904.46875 1479.960938 919.316406 L 1549.996094 896.601562 C 1589.128906 875.332031 1606.691406 919.882812 1610.722656 959.210938 C 1611.023438 962.085938 1611.109375 964.792969 1611.0625 967.34375 C 1612.988281 954.929688 1614.285156 942.429688 1614.816406 930 C 1617.078125 875.582031 1597.929688 847.945312 1571.410156 809.6875 C 1539.4375 763.546875 1495.644531 700.359375 1472.714844 554.046875 C 1451.480469 418.578125 1489.9375 310.695312 1525.941406 244.054688 C 1538.835938 220.183594 1552.328125 199.789062 1564.65625 183.113281 C 1565.644531 183.5 1566.640625 183.882812 1567.628906 184.269531 C 1555.230469 200.980469 1541.605469 221.53125 1528.589844 245.628906 C 1492.851562 311.835938 1454.667969 419.011719 1475.757812 553.566406 C 1498.582031 699.191406 1542.144531 762.042969 1573.949219 807.929688 C 1599.78125 845.226562 1620.195312 874.679688 1617.886719 930.121094 C 1613.167969 1043.394531 1544 1161.722656 1533.035156 1179.804688 L 1569.820312 1179.804688 C 1577.910156 1166.351562 1691.375 974.898438 1678.664062 842.160156 C 1672.765625 780.691406 1646.980469 724.027344 1622.027344 669.234375 C 1591.871094 603.003906 1563.390625 540.441406 1582.664062 486.023438 C 1604.65625 423.945312 1687.511719 330.4375 1743.859375 271.59375 C 1744.726562 272.15625 1745.59375 272.734375 1746.457031 273.3125 C 1690.292969 331.929688 1607.449219 425.304688 1585.578125 487.058594 C 1566.714844 540.296875 1593.640625 599.464844 1624.832031 667.960938 C 1649.882812 722.980469 1675.785156 779.886719 1681.722656 841.871094 C 1694.949219 979.820312 1573.226562 1180.140625 1572 1182.148438 C 1571.722656 1182.605469 1571.226562 1182.882812 1570.6875 1182.882812 L 1530.277344 1182.882812 C 1529.722656 1182.882812 1529.207031 1182.570312 1528.929688 1182.089844 C 1528.664062 1181.597656 1528.675781 1180.996094 1528.976562 1180.511719 C 1529.664062 1179.429688 1588.140625 1086.058594 1608.304688 983.046875 C 1601.417969 1001.921875 1584.121094 1006.339844 1584.121094 1006.339844 L 1464.300781 1075.070312 C 1463.3125 1086.753906 1462.503906 1097.726562 1461.964844 1107.460938 C 1460.855469 1127.214844 1460.253906 1144.515625 1459.929688 1157.75 L 1477.058594 1365.734375 C 1407.699219 1392.492188 1334.402344 1407.386719 1259.769531 1407.386719 C 1198.4375 1407.386719 1142.570312 1394.957031 1092.039062 1372.628906 C 1098.574219 1306.550781 1113.828125 1241.921875 1144.472656 1194.613281 C 1102.34375 1189.117188 1064.253906 1185.207031 1033.34375 1179.023438 C 1040.636719 1239.996094 1037.820312 1293.96875 1012.21875 1326.246094 C 1011.386719 1325.632812 1010.542969 1325.019531 1009.714844 1324.40625 C 1034.945312 1292.703125 1037.554688 1239.082031 1030.175781 1178.371094 C 997.339844 1171.515625 972.976562 1161.839844 961.09375 1144.457031 C 947.636719 1124.761719 957.941406 1023.039062 975.585938 925.703125 "/>
</g>
<g clip-path="url(#clip3)" clip-rule="nonzero">
<path style=" stroke:none;fill-rule:nonzero;fill:rgb(94.898987%,31.369019%,26.669312%);fill-opacity:1;" d="M 658.769531 477.578125 L 759.886719 420.203125 C 762.5 418.722656 765.808594 419.71875 767.15625 422.402344 L 781.84375 451.507812 C 783.105469 453.996094 782.179688 457.027344 779.761719 458.414062 L 680.03125 515.007812 C 669.328125 521.070312 655.726562 516.96875 650.175781 505.984375 C 645.011719 495.746094 648.792969 483.246094 658.769531 477.578125 Z M 2010.898438 838.851562 C 2021.457031 847.082031 2023.335938 862.3125 2015.089844 872.863281 C 2006.253906 884.183594 1989.558594 885.375 1979.191406 875.4375 L 1890.609375 790.511719 L 1912.710938 762.226562 Z M 1782.824219 188.960938 C 1802.398438 180 1836.054688 188.121094 1856.15625 208.332031 C 1871.058594 223.3125 1873.117188 247.578125 1861.671875 264.78125 C 1827.109375 316.722656 1722.203125 472.285156 1707.253906 469.660156 C 1689.316406 466.511719 1753.234375 202.507812 1782.824219 188.960938 Z M 821.867188 729.390625 C 822.023438 729.101562 822.386719 729.007812 822.675781 729.164062 C 827.308594 731.832031 831.449219 735.382812 834.988281 739.4375 C 838.539062 743.503906 841.394531 748.148438 843.667969 753.058594 C 845.8125 758 847.363281 763.234375 848.039062 768.601562 C 848.699219 773.941406 848.589844 779.40625 847.472656 784.640625 C 847.398438 784.976562 847.085938 785.214844 846.738281 785.191406 C 846.351562 785.167969 846.0625 784.832031 846.085938 784.445312 C 846.460938 779.261719 846.230469 774.0625 845.339844 769 C 844.449219 763.933594 842.992188 758.976562 840.851562 754.296875 C 838.839844 749.566406 836.132812 745.164062 832.980469 741.085938 C 829.824219 737.019531 826.128906 733.363281 822.011719 730.148438 C 821.796875 729.96875 821.722656 729.644531 821.867188 729.390625 Z M 831.222656 825.640625 L 831.246094 825.519531 C 831.304688 825.015625 831.4375 824.691406 831.558594 824.367188 C 831.65625 824.027344 831.824219 823.777344 831.980469 823.511719 C 832.171875 823.269531 832.339844 823.019531 832.617188 822.789062 C 832.882812 822.539062 833.148438 822.285156 833.59375 821.996094 L 833.664062 821.949219 C 833.664062 821.949219 833.6875 821.9375 833.699219 821.921875 C 834.0625 821.71875 834.53125 821.851562 834.75 822.210938 C 835.035156 822.71875 835.074219 823.234375 835.035156 823.742188 C 835.023438 824.257812 834.820312 824.714844 834.589844 825.148438 C 834.316406 825.570312 833.988281 825.964844 833.542969 826.21875 C 833.125 826.484375 832.640625 826.675781 832.0625 826.652344 C 832.039062 826.652344 832.015625 826.652344 831.992188 826.640625 C 831.496094 826.578125 831.160156 826.132812 831.222656 825.640625 Z M 836.132812 814.992188 C 837.035156 813.25 837.972656 811.589844 838.816406 809.878906 C 839.648438 808.160156 840.476562 806.464844 841.199219 804.71875 C 841.957031 802.988281 842.597656 801.207031 843.257812 799.414062 C 843.898438 797.621094 844.4375 795.78125 845.050781 793.914062 C 845.136719 793.6875 845.339844 793.519531 845.59375 793.492188 C 845.917969 793.480469 846.207031 793.722656 846.21875 794.058594 C 846.351562 796.082031 846.148438 798.101562 845.773438 800.085938 C 845.414062 802.085938 844.789062 804.019531 844.042969 805.898438 C 843.246094 807.773438 842.320312 809.589844 841.164062 811.25 C 840.03125 812.925781 838.757812 814.511719 837.226562 815.847656 C 837.011719 816.039062 836.699219 816.089844 836.433594 815.945312 C 836.085938 815.761719 835.953125 815.34375 836.132812 814.992188 Z M 677.539062 811.695312 C 690.503906 849.042969 726.914062 872.417969 765.808594 871.527344 C 775.378906 871.3125 781.207031 858.34375 790.761719 855.035156 C 800.539062 851.640625 813.308594 858.101562 821.085938 852.171875 C 851.828125 828.734375 865.722656 788.078125 852.839844 750.941406 C 836.6875 704.390625 793.277344 705.980469 744.863281 722.75 C 696.460938 739.535156 661.394531 765.148438 677.539062 811.695312 Z M 1247.769531 1162.503906 C 1247.769531 1175.257812 1258.398438 1185.457031 1271.15625 1184.929688 L 1375.679688 1180.585938 C 1385.367188 1180.175781 1393.023438 1172.210938 1393.023438 1162.503906 C 1393.023438 1152.804688 1385.367188 1144.828125 1375.679688 1144.421875 L 1271.15625 1140.078125 C 1258.398438 1139.546875 1247.769531 1149.75 1247.769531 1162.503906 "/>
</g>
<path style=" stroke:none;fill-rule:nonzero;fill:rgb(97.648621%,82.348633%,56.858826%);fill-opacity:1;" d="M 704.921875 723.6875 C 711.652344 716.253906 733.246094 725.097656 733.246094 725.097656 C 733.246094 725.097656 722.980469 701.394531 730.769531 701.996094 C 738.554688 702.585938 741.734375 719.789062 741.734375 719.789062 C 741.734375 719.789062 755.542969 696.4375 759.441406 701.996094 C 763.328125 707.542969 747.402344 727.574219 747.402344 727.574219 C 747.402344 727.574219 773.25 731.113281 763.328125 736.777344 C 753.421875 742.433594 742.09375 736.070312 742.09375 736.070312 C 742.09375 736.070312 728.289062 755.882812 721.210938 751.277344 C 714.132812 746.65625 730.40625 733.953125 730.40625 733.953125 C 730.40625 733.953125 698.195312 731.113281 704.921875 723.6875 Z M 1840.988281 114.222656 C 1849.992188 107.605469 1837.90625 164.007812 1837.90625 164.007812 C 1837.90625 164.007812 1849.691406 141.632812 1858.960938 135.796875 C 1868.242188 129.949219 1867.675781 145.792969 1858.984375 155.792969 C 1850.292969 165.777344 1840.582031 177.867188 1840.582031 177.867188 C 1840.582031 177.867188 1876.054688 149.835938 1884.347656 148.679688 C 1892.65625 147.527344 1834.464844 193.207031 1834.464844 193.207031 C 1834.464844 193.207031 1834.464844 193.222656 1834.453125 193.222656 C 1831.851562 191.980469 1829.191406 190.910156 1826.507812 189.960938 C 1826.507812 189.960938 1831.984375 120.839844 1840.988281 114.222656 Z M 1620.316406 859.738281 C 1631.535156 845.515625 1664.617188 823.945312 1664.617188 823.945312 C 1681.804688 827.191406 1692.484375 837.671875 1698.667969 850.449219 C 1701.632812 850.472656 1705.496094 848.453125 1711.285156 854.417969 C 1720.074219 863.492188 1719.722656 863.613281 1727.042969 869.183594 C 1734.347656 874.753906 1732.554688 903.433594 1731.871094 911.085938 C 1731.183594 918.726562 1724.730469 928.253906 1721.988281 932.851562 C 1719.242188 937.460938 1717.269531 946.050781 1709.300781 946 C 1701.316406 945.941406 1699.96875 933.65625 1699.96875 933.65625 C 1699.96875 933.65625 1683.9375 923.503906 1682.695312 918.078125 C 1682.613281 917.738281 1682.503906 917.355469 1682.359375 916.933594 C 1680.421875 916.886719 1678.398438 916.8125 1676.328125 916.71875 C 1677.84375 919.558594 1679.097656 922.359375 1679.820312 924.921875 C 1683.347656 937.53125 1677.292969 949.117188 1669.046875 940.550781 C 1664.050781 935.355469 1653.867188 924.214844 1646.847656 914.457031 C 1641.5625 913.925781 1638.085938 913.527344 1638.085938 913.527344 L 1564.847656 969.234375 C 1561.984375 964.230469 1558.925781 959.117188 1555.75 954.171875 C 1537.789062 926.148438 1549.96875 896.671875 1549.996094 896.601562 C 1582.253906 882.105469 1615.191406 866.234375 1620.316406 859.738281 Z M 1181.972656 1094.886719 L 1305.535156 1114.042969 C 1305.535156 1114.042969 1339.15625 1128.164062 1348.246094 1143.289062 L 1297.351562 1143.277344 C 1297.351562 1143.277344 1325.867188 1189.550781 1333.789062 1196.40625 C 1341.707031 1203.277344 1356.636719 1232.574219 1342.191406 1229.265625 C 1327.734375 1225.945312 1327.226562 1218.894531 1318.65625 1218.386719 C 1310.085938 1217.882812 1296.472656 1218.386719 1290.417969 1215.367188 C 1284.363281 1212.335938 1276.296875 1205.335938 1266.703125 1206.8125 C 1257.121094 1208.304688 1250.175781 1205.597656 1243.519531 1199.234375 C 1236.875 1192.871094 1233.925781 1168.023438 1218.792969 1165.222656 C 1203.664062 1162.429688 1169.824219 1162.082031 1169.824219 1162.082031 C 1169.824219 1162.082031 1143.644531 1103.960938 1181.972656 1094.886719 Z M 1342.71875 629.964844 C 1389.558594 629.148438 1419.351562 542.003906 1419.554688 514.5625 C 1419.605469 507.320312 1421.359375 482.894531 1422.433594 475.605469 C 1424.585938 461 1423.636719 447.128906 1420.085938 434.484375 C 1287.070312 387.40625 1220.730469 466.066406 1220.730469 466.066406 L 1217.375 437.238281 C 1215.867188 469.480469 1224.175781 510.265625 1240.605469 546.011719 C 1238.835938 596.277344 1220.828125 642.921875 1220.828125 642.921875 C 1246.578125 668.152344 1273.515625 675.996094 1286.433594 689.507812 C 1299.386719 703.066406 1292.308594 718.71875 1299.191406 720.296875 C 1311.734375 723.195312 1313.15625 720.261719 1313.15625 720.261719 L 1317.222656 626.175781 C 1325.3125 628.773438 1333.824219 630.121094 1342.71875 629.964844 "/>
<path style=" stroke:none;fill-rule:nonzero;fill:rgb(22.349548%,22.749329%,24.708557%);fill-opacity:1;" d="M 682.425781 481.078125 C 685.84375 479.347656 690.019531 480.71875 691.742188 484.148438 C 693.464844 487.5625 692.089844 491.726562 688.671875 493.449219 C 685.253906 495.179688 681.089844 493.796875 679.367188 490.378906 C 677.632812 486.960938 679.007812 482.800781 682.425781 481.078125 Z M 744.792969 461.011719 C 741.371094 462.742188 737.195312 461.371094 735.476562 457.957031 C 733.753906 454.527344 735.125 450.363281 738.542969 448.644531 C 741.960938 446.921875 746.128906 448.292969 747.847656 451.710938 C 749.582031 455.128906 748.210938 459.292969 744.792969 461.011719 Z M 890.964844 488.515625 L 945.9375 455.152344 L 1001.09375 422.078125 C 1018.851562 410.890625 1030.261719 390.21875 1030.203125 368.949219 C 1030.203125 368.574219 1030.503906 368.261719 1030.886719 368.25 C 1031.273438 368.238281 1031.597656 368.550781 1031.597656 368.9375 C 1031.910156 379.765625 1029.480469 390.726562 1024.410156 400.398438 C 1019.34375 410.070312 1011.84375 418.492188 1002.636719 424.484375 L 947.550781 457.714844 L 892.289062 490.667969 C 873.859375 501.628906 855.34375 512.457031 836.820312 523.25 C 836.542969 523.417969 836.191406 523.320312 836.023438 523.054688 C 835.84375 522.78125 835.929688 522.417969 836.203125 522.25 C 854.417969 510.929688 872.65625 499.667969 890.964844 488.515625 Z M 1981.285156 840.078125 C 1985.042969 839.34375 1988.691406 841.789062 1989.425781 845.539062 C 1990.160156 849.304688 1987.714844 852.941406 1983.960938 853.6875 C 1980.203125 854.417969 1976.554688 851.976562 1975.820312 848.222656 C 1975.074219 844.46875 1977.53125 840.824219 1981.285156 840.078125 Z M 1933.980469 797.585938 C 1937.734375 796.851562 1941.382812 799.292969 1942.117188 803.046875 C 1942.863281 806.800781 1940.40625 810.445312 1936.652344 811.191406 C 1932.894531 811.925781 1929.25 809.484375 1928.515625 805.730469 C 1927.769531 801.964844 1930.222656 798.320312 1933.980469 797.585938 Z M 1767.777344 731.894531 C 1786.097656 747.617188 1805.128906 762.527344 1824.59375 776.867188 C 1824.847656 777.046875 1824.90625 777.40625 1824.726562 777.671875 C 1824.546875 777.9375 1824.171875 777.996094 1823.910156 777.816406 C 1813.976562 770.910156 1804.191406 763.789062 1794.488281 756.535156 C 1784.882812 749.171875 1775.398438 741.652344 1766.09375 733.878906 C 1747.507812 718.359375 1729.703125 701.875 1712.800781 684.480469 C 1696.058594 666.960938 1680.3125 648.421875 1666.289062 628.628906 C 1652.277344 608.851562 1639.960938 587.785156 1630.5625 565.417969 C 1630.417969 565.082031 1630.5625 564.683594 1630.898438 564.515625 C 1631.246094 564.347656 1631.65625 564.492188 1631.824219 564.839844 L 1631.835938 564.863281 L 1639.769531 581.117188 C 1642.464844 586.507812 1645.703125 591.621094 1648.628906 596.878906 C 1651.472656 602.199219 1654.996094 607.09375 1658.210938 612.195312 C 1659.871094 614.699219 1661.460938 617.273438 1663.183594 619.738281 L 1668.503906 627.042969 C 1682.648438 646.558594 1698.273438 664.988281 1715.015625 682.363281 C 1731.714844 699.769531 1749.457031 716.179688 1767.777344 731.894531 Z M 1845.15625 186.351562 C 1841.808594 188.589844 1838.390625 190.742188 1834.683594 192.390625 C 1834.382812 192.523438 1834.007812 192.425781 1833.816406 192.148438 C 1833.597656 191.824219 1833.683594 191.390625 1834.007812 191.175781 C 1837.257812 188.9375 1840.425781 186.566406 1843.554688 184.148438 C 1846.683594 181.730469 1849.8125 179.300781 1852.882812 176.785156 L 1862.199219 169.363281 C 1865.304688 166.882812 1868.421875 164.40625 1871.613281 162.011719 C 1871.828125 161.84375 1872.15625 161.84375 1872.371094 162.035156 C 1872.613281 162.265625 1872.625 162.636719 1872.40625 162.878906 C 1869.710938 165.851562 1866.820312 168.617188 1863.886719 171.335938 C 1860.960938 174.054688 1857.878906 176.605469 1854.808594 179.179688 C 1851.644531 181.648438 1848.488281 184.113281 1845.15625 186.351562 Z M 1859.371094 136.21875 C 1856.398438 139.695312 1853.507812 143.28125 1850.777344 146.9375 C 1848.054688 150.605469 1845.394531 154.324219 1843.046875 158.222656 C 1840.582031 162.058594 1838.484375 166.089844 1836.546875 170.191406 C 1834.644531 174.320312 1833.164062 178.589844 1831.925781 182.996094 L 1831.914062 183.019531 C 1831.816406 183.34375 1831.503906 183.558594 1831.15625 183.523438 C 1830.769531 183.476562 1830.503906 183.125 1830.542969 182.742188 C 1831.09375 178.085938 1832.324219 173.5 1834.03125 169.121094 C 1835.8125 164.765625 1837.992188 160.59375 1840.4375 156.597656 C 1843 152.6875 1845.707031 148.863281 1848.730469 145.3125 C 1851.773438 141.761719 1854.964844 138.382812 1858.5625 135.363281 C 1858.78125 135.183594 1859.105469 135.183594 1859.324219 135.363281 C 1859.5625 135.578125 1859.601562 135.953125 1859.382812 136.203125 Z M 1856.3125 167.714844 C 1851.75 171.035156 1847.285156 174.535156 1842.808594 178 L 1829.375 188.445312 C 1829.132812 188.625 1828.808594 188.613281 1828.589844 188.394531 C 1828.363281 188.167969 1828.363281 187.792969 1828.589844 187.566406 C 1832.613281 183.511719 1836.847656 179.710938 1841.15625 175.980469 C 1845.46875 172.25 1849.957031 168.738281 1854.472656 165.25 C 1859.058594 161.867188 1863.730469 158.558594 1868.617188 155.5625 C 1873.515625 152.617188 1878.558594 149.765625 1884.109375 148.03125 C 1884.445312 147.933594 1884.816406 148.09375 1884.960938 148.417969 C 1885.121094 148.777344 1884.949219 149.1875 1884.601562 149.332031 C 1879.523438 151.664062 1874.765625 154.722656 1870.097656 157.859375 C 1865.425781 161.011719 1860.804688 164.261719 1856.3125 167.714844 Z M 1726.765625 447.609375 C 1726.957031 447.765625 1727.042969 448.042969 1726.945312 448.28125 C 1726.835938 448.59375 1726.488281 448.75 1726.1875 448.632812 C 1723.984375 447.8125 1721.832031 447.066406 1719.628906 446.527344 C 1717.414062 446.007812 1715.199219 445.585938 1712.945312 445.382812 C 1710.707031 445.140625 1708.457031 445.105469 1706.191406 445.179688 C 1703.929688 445.261719 1701.667969 445.5625 1699.367188 445.914062 C 1699.066406 445.960938 1698.765625 445.816406 1698.621094 445.527344 C 1698.441406 445.179688 1698.597656 444.757812 1698.933594 444.589844 C 1701.125 443.492188 1703.507812 442.84375 1705.929688 442.472656 C 1708.347656 442.074219 1710.828125 442.074219 1713.269531 442.316406 C 1715.714844 442.605469 1718.132812 443.144531 1720.410156 444.058594 C 1722.695312 444.9375 1724.875 446.09375 1726.765625 447.609375 Z M 1728.246094 407.582031 C 1730.90625 407.941406 1733.496094 408.820312 1735.890625 410.046875 C 1738.261719 411.296875 1740.476562 412.898438 1742.304688 414.859375 C 1744.148438 416.820312 1745.675781 419.070312 1746.601562 421.5625 C 1746.699219 421.851562 1746.617188 422.1875 1746.363281 422.378906 C 1746.050781 422.609375 1745.605469 422.535156 1745.375 422.222656 C 1743.882812 420.226562 1742.246094 418.410156 1740.417969 416.832031 C 1738.574219 415.269531 1736.601562 413.875 1734.457031 412.765625 C 1732.339844 411.625 1730.074219 410.769531 1727.742188 410.132812 C 1725.394531 409.507812 1722.949219 409.179688 1720.445312 409.085938 C 1720.191406 409.074219 1719.964844 408.90625 1719.890625 408.640625 C 1719.808594 408.328125 1720 408.003906 1720.3125 407.917969 C 1722.878906 407.257812 1725.597656 407.207031 1728.246094 407.582031 Z M 1752.273438 370.71875 C 1755.175781 372.59375 1757.90625 374.722656 1760.265625 377.214844 C 1760.496094 377.441406 1760.53125 377.816406 1760.339844 378.09375 C 1760.121094 378.40625 1759.6875 378.488281 1759.363281 378.273438 C 1756.59375 376.40625 1753.800781 374.628906 1750.890625 373.0625 C 1747.976562 371.523438 1745.003906 370.105469 1741.933594 368.9375 C 1738.875 367.722656 1735.722656 366.757812 1732.53125 365.929688 C 1729.316406 365.121094 1726.054688 364.546875 1722.734375 364.0625 C 1722.46875 364.027344 1722.25 363.800781 1722.226562 363.523438 C 1722.203125 363.199219 1722.445312 362.910156 1722.769531 362.886719 C 1726.1875 362.621094 1729.640625 362.847656 1733.050781 363.390625 C 1736.457031 363.90625 1739.800781 364.859375 1743.039062 366.0625 C 1746.253906 367.3125 1749.382812 368.839844 1752.273438 370.71875 Z M 1760.121094 343.128906 C 1764.597656 344.609375 1768.835938 346.773438 1772.796875 349.351562 C 1776.671875 352.042969 1780.296875 355.136719 1783.355469 358.722656 C 1786.410156 362.308594 1789 366.289062 1790.816406 370.597656 C 1790.925781 370.863281 1790.839844 371.175781 1790.589844 371.332031 C 1790.3125 371.5 1789.949219 371.414062 1789.769531 371.136719 C 1787.339844 367.289062 1784.570312 363.691406 1781.429688 360.480469 C 1778.285156 357.265625 1774.867188 354.332031 1771.085938 351.914062 C 1767.390625 349.375 1763.371094 347.339844 1759.195312 345.691406 C 1755.003906 344.042969 1750.636719 342.890625 1746.144531 342.121094 C 1745.820312 342.070312 1745.554688 341.769531 1745.566406 341.421875 C 1745.566406 341.035156 1745.882812 340.734375 1746.265625 340.734375 C 1750.960938 340.785156 1755.632812 341.660156 1760.121094 343.128906 Z M 1743.003906 304.917969 C 1742.980469 304.59375 1743.234375 304.316406 1743.558594 304.304688 C 1749.867188 303.933594 1756.257812 304.714844 1762.382812 306.433594 C 1768.523438 308.144531 1774.363281 310.898438 1779.71875 314.398438 C 1784.992188 318.007812 1789.757812 322.375 1793.683594 327.40625 C 1797.59375 332.421875 1800.761719 338.039062 1802.804688 344.019531 C 1802.914062 344.355469 1802.769531 344.730469 1802.445312 344.875 C 1802.097656 345.042969 1801.6875 344.898438 1801.519531 344.550781 C 1798.847656 338.980469 1795.535156 333.769531 1791.5625 329.113281 C 1787.613281 324.46875 1783.089844 320.292969 1777.996094 316.949219 C 1772.988281 313.472656 1767.417969 310.851562 1761.625 308.914062 C 1755.824219 306.988281 1749.734375 305.855469 1743.558594 305.472656 C 1743.257812 305.460938 1743.015625 305.21875 1743.003906 304.917969 Z M 1761.953125 273.566406 C 1762.15625 273.660156 1762.300781 273.867188 1762.300781 274.105469 C 1762.300781 274.429688 1762.035156 274.707031 1761.710938 274.707031 C 1760.050781 274.746094 1758.449219 274.757812 1756.871094 274.863281 C 1755.292969 275.007812 1753.742188 275.152344 1752.199219 275.429688 C 1750.648438 275.671875 1749.132812 276.042969 1747.601562 276.429688 C 1746.074219 276.824219 1744.570312 277.332031 1742.992188 277.824219 C 1742.738281 277.910156 1742.4375 277.835938 1742.246094 277.632812 C 1741.980469 277.34375 1742.003906 276.886719 1742.292969 276.621094 C 1743.582031 275.441406 1745.097656 274.5625 1746.6875 273.855469 C 1748.277344 273.132812 1749.984375 272.675781 1751.707031 272.398438 C 1753.429688 272.144531 1755.199219 272.0625 1756.929688 272.265625 C 1758.652344 272.457031 1760.363281 272.84375 1761.953125 273.566406 Z M 1818.417969 301.910156 C 1821.695312 307.023438 1824.246094 312.59375 1825.726562 318.453125 C 1825.796875 318.730469 1825.640625 319.03125 1825.363281 319.140625 C 1825.0625 319.261719 1824.726562 319.117188 1824.605469 318.800781 C 1822.441406 313.316406 1819.660156 308.117188 1816.265625 303.367188 C 1812.859375 298.625 1808.957031 294.234375 1804.492188 290.492188 C 1800.109375 286.644531 1795.210938 283.417969 1790.011719 280.773438 C 1784.824219 278.125 1779.273438 276.152344 1773.53125 274.816406 C 1773.195312 274.746094 1772.953125 274.417969 1772.988281 274.070312 C 1773.027344 273.6875 1773.375 273.410156 1773.761719 273.445312 C 1779.765625 274.070312 1785.664062 275.816406 1791.203125 278.316406 C 1796.738281 280.84375 1801.867188 284.238281 1806.503906 288.171875 C 1811.050781 292.214844 1815.144531 296.785156 1818.417969 301.910156 Z M 1808.789062 254.097656 C 1810.726562 255.507812 1812.617188 257 1814.363281 258.660156 C 1816.109375 260.308594 1817.78125 262.027344 1819.25 263.941406 C 1819.429688 264.179688 1819.441406 264.519531 1819.261719 264.78125 C 1819.03125 265.09375 1818.601562 265.167969 1818.273438 264.949219 C 1816.335938 263.578125 1814.484375 262.136719 1812.605469 260.738281 L 1806.984375 256.589844 L 1795.570312 248.371094 C 1795.367188 248.214844 1795.269531 247.9375 1795.355469 247.6875 C 1795.476562 247.375 1795.8125 247.21875 1796.125 247.335938 C 1798.402344 248.105469 1800.566406 249.140625 1802.6875 250.285156 C 1804.816406 251.402344 1806.828125 252.714844 1808.789062 254.097656 Z M 1787.21875 243.089844 C 1784.726562 242.234375 1782.28125 241.359375 1779.816406 240.585938 C 1777.335938 239.828125 1774.867188 239.082031 1772.363281 238.457031 C 1769.871094 237.796875 1767.34375 237.277344 1764.804688 236.75 C 1762.253906 236.246094 1759.6875 235.847656 1757.089844 235.402344 C 1756.835938 235.367188 1756.628906 235.160156 1756.59375 234.886719 C 1756.558594 234.558594 1756.785156 234.269531 1757.113281 234.234375 C 1759.785156 233.921875 1762.480469 233.957031 1765.152344 234.175781 C 1767.835938 234.367188 1770.496094 234.847656 1773.109375 235.472656 C 1775.722656 236.136719 1778.296875 236.953125 1780.753906 238.023438 C 1783.234375 239.097656 1785.628906 240.3125 1787.84375 241.839844 C 1788.097656 242.007812 1788.21875 242.34375 1788.109375 242.644531 C 1787.988281 243.019531 1787.589844 243.210938 1787.21875 243.089844 Z M 1837.378906 237.148438 C 1832.527344 232.539062 1826.917969 228.738281 1820.933594 225.621094 C 1817.9375 224.082031 1814.867188 222.660156 1811.703125 221.480469 C 1808.574219 220.195312 1805.285156 219.21875 1802.046875 218.378906 L 1801.988281 218.367188 C 1801.652344 218.28125 1801.433594 217.945312 1801.484375 217.597656 C 1801.53125 217.210938 1801.890625 216.945312 1802.265625 217.007812 C 1809.199219 217.992188 1815.832031 220.230469 1822.152344 223.179688 C 1828.457031 226.175781 1834.308594 230.15625 1839.472656 234.910156 C 1842.097656 237.253906 1844.289062 240.023438 1846.515625 242.730469 C 1847.527344 244.160156 1848.441406 245.664062 1849.414062 247.132812 C 1850.449219 248.550781 1851.183594 250.152344 1851.90625 251.753906 C 1855.183594 257.996094 1856.601562 264.949219 1857.542969 271.773438 C 1857.578125 272.0625 1857.398438 272.351562 1857.109375 272.421875 C 1856.78125 272.496094 1856.46875 272.300781 1856.386719 271.988281 L 1856.375 271.941406 C 1854.710938 265.347656 1852.992188 258.765625 1849.585938 252.945312 C 1848.152344 249.898438 1846.070312 247.253906 1844.214844 244.472656 C 1842.035156 241.933594 1839.917969 239.335938 1837.378906 237.148438 Z M 713.613281 855.503906 C 721.148438 860.363281 729.300781 864.238281 737.859375 866.546875 C 746.40625 868.855469 755.398438 869.507812 764.039062 867.871094 C 768.375 867.136719 772.609375 865.847656 776.558594 863.972656 C 780.566406 862.15625 784.09375 859.558594 787.679688 856.824219 C 791.257812 854.105469 794.890625 851.207031 799.152344 849.210938 C 803.355469 847.285156 808.21875 846.191406 812.839844 847.332031 C 813.140625 847.40625 813.332031 847.695312 813.285156 848.007812 C 813.226562 848.320312 812.925781 848.535156 812.597656 848.476562 C 808.277344 847.71875 803.882812 849.003906 800.066406 851.0625 C 796.191406 853.097656 792.785156 855.984375 789.292969 858.859375 C 785.851562 861.769531 782.023438 864.574219 777.8125 866.570312 C 773.632812 868.628906 769.15625 870.058594 764.59375 870.902344 C 755.433594 872.515625 745.933594 871.828125 737.113281 869.171875 C 728.265625 866.546875 720.089844 862.121094 712.808594 856.644531 C 712.519531 856.429688 712.445312 856.019531 712.652344 855.707031 C 712.855469 855.382812 713.289062 855.285156 713.613281 855.503906 Z M 741.6875 730.535156 C 741.734375 730.304688 741.925781 730.101562 742.167969 730.054688 C 742.492188 729.992188 742.804688 730.210938 742.867188 730.535156 C 743.25 732.605469 743.167969 734.746094 742.78125 736.839844 C 742.421875 738.933594 741.675781 740.953125 740.699219 742.855469 C 739.6875 744.730469 738.449219 746.488281 736.917969 747.980469 C 735.402344 749.472656 733.679688 750.757812 731.753906 751.613281 C 731.488281 751.722656 731.164062 751.671875 730.949219 751.457031 C 730.683594 751.179688 730.683594 750.722656 730.972656 750.457031 C 732.382812 749.0625 733.71875 747.679688 734.871094 746.164062 C 736.027344 744.648438 737.101562 743.082031 737.976562 741.398438 C 738.894531 739.75 739.617188 737.992188 740.265625 736.1875 C 740.878906 734.382812 741.3125 732.496094 741.6875 730.535156 Z M 735.65625 726.9375 C 735.476562 727.214844 735.101562 727.285156 734.824219 727.105469 C 733.03125 725.902344 731.585938 724.207031 730.441406 722.367188 C 729.273438 720.523438 728.492188 718.480469 727.925781 716.410156 C 727.410156 714.328125 727.085938 712.210938 727.023438 710.117188 C 726.941406 708.011719 726.988281 705.929688 727.265625 703.875 C 727.300781 703.585938 727.519531 703.34375 727.808594 703.273438 C 728.191406 703.1875 728.578125 703.429688 728.660156 703.8125 C 729.117188 705.835938 729.382812 707.855469 729.734375 709.828125 C 730.09375 711.800781 730.417969 713.75 730.914062 715.640625 C 731.371094 717.539062 732.007812 719.371094 732.742188 721.148438 C 733.511719 722.929688 734.476562 724.613281 735.644531 726.261719 C 735.777344 726.457031 735.800781 726.734375 735.65625 726.9375 Z M 709.039062 731.640625 C 711.460938 731.726562 713.84375 732.015625 716.203125 732.253906 C 718.574219 732.472656 720.910156 732.761719 723.246094 732.929688 C 725.566406 733.097656 727.9375 733.253906 730.128906 733.121094 C 732.308594 732.964844 734.4375 732.316406 736.101562 730.835938 L 736.125 730.824219 C 736.304688 730.65625 736.582031 730.617188 736.8125 730.75 C 737.085938 730.917969 737.183594 731.28125 737.027344 731.558594 C 735.667969 733.890625 733.03125 735.203125 730.503906 735.695312 C 727.925781 736.226562 725.472656 736.105469 723.015625 735.996094 C 720.570312 735.804688 718.152344 735.480469 715.78125 734.9375 C 713.398438 734.421875 711.0625 733.820312 708.773438 733 C 708.5 732.90625 708.292969 732.628906 708.304688 732.316406 C 708.316406 731.929688 708.65625 731.628906 709.039062 731.640625 Z M 750.796875 709.035156 C 749.59375 710.453125 748.425781 711.839844 747.476562 713.355469 C 746.488281 714.832031 745.730469 716.433594 745.128906 718.082031 C 744.550781 719.753906 744.25 721.5 744.203125 723.328125 L 744.203125 723.351562 C 744.191406 723.628906 744.007812 723.894531 743.730469 723.988281 C 743.359375 724.121094 742.949219 723.941406 742.816406 723.570312 C 742.105469 721.621094 742.09375 719.441406 742.492188 717.394531 C 742.890625 715.328125 743.769531 713.402344 744.898438 711.667969 C 746.054688 709.960938 747.429688 708.445312 748.980469 707.171875 C 750.507812 705.894531 752.132812 704.777344 753.890625 703.886719 C 754.109375 703.777344 754.386719 703.800781 754.578125 703.96875 C 754.820312 704.1875 754.84375 704.570312 754.625 704.8125 Z M 764.953125 733.878906 L 764.929688 733.855469 C 761.980469 731.039062 758.105469 729.933594 754.0625 729.355469 C 752.050781 729.03125 749.992188 728.875 747.898438 728.730469 C 745.828125 728.597656 743.707031 728.550781 741.601562 728.464844 L 741.578125 728.453125 C 741.289062 728.441406 741.023438 728.25 740.925781 727.960938 C 740.820312 727.585938 741.023438 727.191406 741.398438 727.082031 C 743.539062 726.433594 745.707031 726.15625 747.898438 726.011719 C 750.101562 725.855469 752.328125 725.976562 754.53125 726.3125 C 756.734375 726.695312 758.972656 727.261719 760.996094 728.40625 C 763.015625 729.5 764.894531 731.089844 765.90625 733.195312 C 766 733.410156 765.964844 733.675781 765.796875 733.867188 C 765.570312 734.097656 765.195312 734.109375 764.953125 733.878906 Z M 1594.039062 980.53125 C 1592.871094 981.976562 1591.234375 983.105469 1589.476562 983.585938 C 1587.730469 984.09375 1586.011719 984.164062 1584.347656 983.996094 L 1586.550781 985.269531 L 1591.644531 988.265625 L 1591.714844 988.304688 C 1592.015625 988.484375 1592.136719 988.867188 1591.992188 989.195312 C 1591.824219 989.542969 1591.414062 989.699219 1591.066406 989.53125 C 1583.808594 986.1875 1576.5625 982.214844 1570.855469 976.378906 C 1565.066406 970.726562 1560.035156 964.191406 1556.421875 956.9375 C 1552.8125 949.707031 1550.054688 942.054688 1548.34375 934.1875 C 1546.671875 926.316406 1545.722656 918.304688 1546.035156 910.246094 C 1546.058594 909.945312 1546.285156 909.703125 1546.601562 909.679688 C 1546.925781 909.667969 1547.191406 909.90625 1547.214844 910.234375 L 1547.214844 910.269531 C 1547.429688 914.191406 1547.828125 918.136719 1548.5 922.023438 C 1549.078125 925.921875 1549.898438 929.785156 1550.886719 933.585938 C 1552.859375 941.1875 1555.519531 948.613281 1559.15625 955.53125 C 1562.550781 962.59375 1567.386719 968.824219 1572.769531 974.429688 L 1576.96875 978.496094 L 1581.097656 981.601562 C 1583.746094 981.855469 1586.394531 981.890625 1588.585938 981.011719 C 1591.125 980.050781 1592.667969 977.765625 1593.304688 974.972656 C 1593.992188 972.179688 1593.90625 969.101562 1593.714844 966.058594 C 1593.472656 963 1592.96875 959.898438 1592.390625 956.839844 L 1592.378906 956.816406 C 1592.332031 956.554688 1592.460938 956.277344 1592.726562 956.167969 C 1593.015625 956.035156 1593.367188 956.167969 1593.496094 956.46875 C 1594.847656 959.429688 1595.726562 962.519531 1596.300781 965.734375 C 1596.84375 968.933594 1597.0625 972.289062 1596.289062 975.683594 C 1595.882812 977.355469 1595.195312 979.0625 1594.039062 980.53125 Z M 1385.175781 729.113281 C 1387.164062 732.761719 1388.96875 736.488281 1390.75 740.230469 C 1392.542969 743.960938 1394.179688 747.761719 1395.902344 751.527344 C 1397.503906 755.34375 1399.140625 759.144531 1400.667969 762.996094 C 1402.183594 766.84375 1403.691406 770.707031 1404.988281 774.652344 C 1405.097656 774.964844 1404.964844 775.328125 1404.664062 775.484375 C 1404.316406 775.675781 1403.894531 775.542969 1403.714844 775.207031 C 1401.726562 771.550781 1399.933594 767.820312 1398.175781 764.078125 C 1396.40625 760.324219 1394.769531 756.523438 1393.074219 752.746094 C 1391.507812 748.917969 1389.859375 745.117188 1388.367188 741.265625 C 1386.863281 737.40625 1385.382812 733.53125 1384.09375 729.585938 C 1383.996094 729.320312 1384.117188 729.019531 1384.371094 728.875 C 1384.660156 728.71875 1385.007812 728.824219 1385.175781 729.113281 Z M 1083.238281 745.910156 L 1083.214844 745.898438 C 1078.242188 744.226562 1073.152344 742.832031 1068.046875 741.722656 C 1062.945312 740.640625 1057.78125 739.761719 1052.601562 739.640625 C 1047.453125 739.414062 1042.238281 739.59375 1037.328125 741 C 1032.40625 742.335938 1027.855469 744.742188 1023.976562 748.195312 L 1023.953125 748.234375 C 1023.6875 748.449219 1023.304688 748.460938 1023.039062 748.234375 C 1022.738281 747.992188 1022.703125 747.546875 1022.953125 747.257812 C 1026.480469 743.082031 1031.332031 740.074219 1036.558594 738.378906 C 1037.882812 738.007812 1039.207031 737.65625 1040.542969 737.320312 L 1044.597656 736.777344 C 1045.957031 736.539062 1047.320312 736.632812 1048.679688 736.539062 C 1050.039062 736.464844 1051.398438 736.453125 1052.746094 736.574219 C 1058.152344 736.875 1063.496094 737.765625 1068.660156 739.210938 C 1073.835938 740.640625 1078.894531 742.410156 1083.695312 744.828125 C 1083.949219 744.949219 1084.082031 745.261719 1083.984375 745.539062 C 1083.878906 745.851562 1083.539062 746.019531 1083.238281 745.910156 Z M 1350.410156 300.816406 C 1350.398438 301.175781 1350.109375 301.464844 1349.75 301.488281 C 1349.363281 301.5 1349.039062 301.199219 1349.015625 300.816406 C 1348.65625 292.609375 1348.484375 284.394531 1348.355469 276.175781 L 1348.171875 251.535156 L 1348.414062 226.894531 C 1348.570312 218.691406 1348.75 210.472656 1349.125 202.257812 C 1349.136719 201.957031 1349.390625 201.714844 1349.691406 201.703125 C 1350.015625 201.679688 1350.292969 201.929688 1350.304688 202.257812 C 1350.675781 210.472656 1350.871094 218.691406 1351.015625 226.894531 L 1351.253906 251.535156 L 1351.074219 276.175781 C 1350.941406 284.394531 1350.785156 292.609375 1350.410156 300.816406 Z M 1301.601562 371.210938 C 1301.226562 371.308594 1300.828125 371.089844 1300.734375 370.707031 C 1300.191406 368.707031 1299.867188 366.699219 1299.554688 364.675781 C 1299.242188 362.65625 1299.046875 360.636719 1298.867188 358.601562 C 1298.734375 356.570312 1298.589844 354.535156 1298.601562 352.488281 C 1298.578125 350.445312 1298.589844 348.398438 1298.796875 346.34375 C 1298.820312 346.101562 1298.988281 345.898438 1299.226562 345.824219 C 1299.554688 345.742188 1299.878906 345.921875 1299.976562 346.246094 C 1300.515625 348.242188 1300.867188 350.253906 1301.191406 352.273438 C 1301.527344 354.292969 1301.730469 356.316406 1301.9375 358.347656 C 1302.105469 360.371094 1302.261719 362.402344 1302.273438 364.449219 C 1302.308594 366.480469 1302.308594 368.527344 1302.117188 370.597656 C 1302.09375 370.875 1301.890625 371.136719 1301.601562 371.210938 Z M 1299.433594 332.289062 C 1299.046875 332.324219 1298.710938 332.035156 1298.6875 331.652344 C 1297.773438 319.65625 1296.953125 307.648438 1296.253906 295.644531 L 1294.316406 259.621094 L 1292.789062 223.574219 C 1292.332031 211.554688 1291.992188 199.523438 1291.742188 187.507812 C 1291.742188 187.191406 1291.96875 186.929688 1292.28125 186.90625 C 1292.609375 186.878906 1292.898438 187.121094 1292.921875 187.445312 C 1293.835938 199.441406 1294.679688 211.4375 1295.386719 223.441406 L 1297.386719 259.464844 L 1298.976562 295.511719 C 1299.457031 307.53125 1299.816406 319.5625 1300.082031 331.578125 C 1300.082031 331.953125 1299.804688 332.265625 1299.433594 332.289062 Z M 1418.363281 390.699219 L 1418.339844 390.699219 C 1409.804688 388.210938 1401.019531 386.417969 1392.21875 385.023438 C 1383.417969 383.589844 1374.546875 382.582031 1365.664062 382.027344 C 1347.882812 380.96875 1329.984375 381.363281 1312.421875 384.265625 C 1294.847656 386.921875 1277.621094 391.890625 1261.464844 399.292969 C 1257.363281 401 1253.496094 403.214844 1249.527344 405.199219 C 1245.722656 407.496094 1241.773438 409.566406 1238.125 412.117188 C 1230.554688 416.820312 1223.644531 422.464844 1216.84375 428.226562 L 1216.832031 428.238281 C 1216.542969 428.480469 1216.121094 428.453125 1215.867188 428.191406 C 1215.605469 427.902344 1215.617188 427.457031 1215.90625 427.203125 C 1225.738281 418.011719 1236.574219 409.769531 1248.296875 403.03125 C 1246.550781 388.292969 1244.878906 373.558594 1243.3125 358.792969 L 1238.679688 313.4375 L 1234.453125 268.03125 C 1233.09375 252.894531 1231.867188 237.75 1230.722656 222.589844 C 1230.6875 222.214844 1230.964844 221.878906 1231.324219 221.84375 C 1231.710938 221.796875 1232.058594 222.070312 1232.105469 222.445312 C 1233.902344 237.542969 1235.585938 252.65625 1237.164062 267.765625 L 1241.75 313.136719 L 1245.902344 358.542969 C 1247.203125 373.148438 1248.371094 387.765625 1249.476562 402.394531 C 1253.015625 400.398438 1256.617188 398.519531 1260.324219 396.8125 C 1276.621094 389.078125 1294.148438 384.023438 1311.953125 381.21875 C 1324.195312 379.320312 1336.582031 378.550781 1348.945312 378.695312 C 1348.640625 374.074219 1348.472656 369.453125 1348.355469 364.835938 C 1348.222656 359.757812 1348.234375 354.691406 1348.171875 349.613281 C 1348.257812 344.550781 1348.257812 339.472656 1348.414062 334.40625 C 1348.570312 329.328125 1348.75 324.265625 1349.125 319.1875 C 1349.148438 318.898438 1349.375 318.671875 1349.664062 318.644531 C 1350.003906 318.621094 1350.28125 318.863281 1350.304688 319.1875 C 1350.675781 324.265625 1350.871094 329.328125 1351.015625 334.40625 C 1351.183594 339.472656 1351.171875 344.550781 1351.253906 349.613281 C 1351.195312 354.691406 1351.207031 359.757812 1351.074219 364.835938 C 1350.953125 369.453125 1350.796875 374.085938 1350.484375 378.71875 C 1355.613281 378.800781 1360.738281 379.042969 1365.84375 379.441406 C 1373.535156 380.066406 1381.203125 381.027344 1388.8125 382.339844 C 1388.148438 369.320312 1387.570312 356.316406 1387.113281 343.296875 L 1385.863281 303.054688 L 1385.019531 262.796875 C 1384.792969 249.382812 1384.683594 235.957031 1384.660156 222.527344 C 1384.660156 222.214844 1384.898438 221.964844 1385.210938 221.9375 C 1385.539062 221.925781 1385.8125 222.179688 1385.839844 222.503906 C 1386.523438 235.90625 1387.136719 249.324219 1387.621094 262.738281 L 1388.945312 302.96875 L 1389.847656 343.226562 C 1390.085938 356.339844 1390.21875 369.464844 1390.257812 382.582031 C 1399.875 384.300781 1409.394531 386.574219 1418.714844 389.582031 C 1419.015625 389.679688 1419.183594 390.003906 1419.097656 390.304688 C 1419 390.617188 1418.675781 390.796875 1418.363281 390.699219 Z M 1153.175781 1326.175781 L 1153.25 1326.164062 L 1159.929688 1325.03125 L 1163.265625 1324.46875 L 1166.492188 1323.492188 C 1168.644531 1322.84375 1170.824219 1322.277344 1172.953125 1321.566406 L 1179.140625 1318.933594 C 1187.195312 1315.070312 1194.933594 1310.367188 1201.578125 1304.277344 C 1208.367188 1298.394531 1214.398438 1291.644531 1219.804688 1284.425781 C 1222.511719 1280.804688 1225.054688 1277.0625 1227.386719 1273.203125 C 1229.589844 1269.726562 1231.578125 1266.105469 1233.371094 1262.421875 C 1230.53125 1261.0625 1227.703125 1259.703125 1224.871094 1258.320312 C 1200.21875 1246.179688 1176.21875 1232.800781 1152.9375 1218.21875 C 1152.609375 1218.015625 1152.515625 1217.582031 1152.707031 1217.257812 C 1152.914062 1216.933594 1153.34375 1216.835938 1153.671875 1217.039062 C 1165.417969 1224.066406 1177.382812 1230.769531 1189.46875 1237.230469 C 1201.507812 1243.761719 1213.664062 1250.078125 1225.992188 1256.046875 C 1250.644531 1267.921875 1275.875 1278.820312 1302.09375 1286.4375 C 1315.152344 1290.273438 1328.574219 1293.246094 1342.09375 1293.570312 C 1348.8125 1293.59375 1355.660156 1293.210938 1361.90625 1290.910156 C 1363.484375 1290.394531 1364.917969 1289.550781 1366.433594 1288.902344 C 1366.796875 1288.722656 1367.191406 1288.554688 1367.53125 1288.375 L 1368.324219 1287.746094 C 1368.792969 1287.195312 1369.335938 1286.675781 1369.71875 1285.96875 C 1371.429688 1283.261719 1372.5625 1280.035156 1373.570312 1276.835938 C 1377.398438 1263.828125 1379.253906 1250.175781 1381.023438 1236.640625 C 1382.78125 1223.066406 1384.128906 1209.425781 1385.128906 1195.769531 C 1385.152344 1195.457031 1385.429688 1195.203125 1385.753906 1195.214844 C 1386.078125 1195.238281 1386.320312 1195.503906 1386.308594 1195.839844 C 1385.597656 1209.546875 1384.550781 1223.222656 1383.082031 1236.878906 C 1382.214844 1244.050781 1381.3125 1251.222656 1380.109375 1258.355469 C 1382.191406 1262.167969 1384.417969 1265.921875 1386.789062 1269.570312 C 1389.449219 1273.695312 1392.265625 1277.75 1395.46875 1281.382812 C 1397.105469 1283.164062 1398.777344 1284.921875 1400.632812 1286.316406 C 1402.460938 1287.820312 1404.472656 1288.792969 1406.519531 1288.757812 L 1408.121094 1288.664062 L 1409.851562 1288.265625 C 1410.996094 1288.046875 1412.152344 1287.710938 1413.308594 1287.316406 C 1415.621094 1286.628906 1417.90625 1285.703125 1420.195312 1284.835938 C 1429.355469 1281.285156 1438.296875 1277.015625 1447.230469 1272.78125 C 1456.148438 1268.511719 1465.046875 1264.144531 1473.90625 1259.726562 C 1474.230469 1259.558594 1474.640625 1259.679688 1474.820312 1259.992188 C 1475.011719 1260.328125 1474.902344 1260.761719 1474.578125 1260.953125 C 1465.996094 1265.960938 1457.292969 1270.722656 1448.433594 1275.222656 C 1439.574219 1279.710938 1430.59375 1283.980469 1421.3125 1287.710938 C 1418.953125 1288.554688 1416.628906 1289.46875 1414.175781 1290.167969 C 1412.984375 1290.550781 1411.753906 1290.898438 1410.46875 1291.140625 L 1408.566406 1291.539062 C 1407.878906 1291.609375 1407.15625 1291.621094 1406.445312 1291.644531 C 1403.570312 1291.632812 1400.847656 1290.167969 1398.921875 1288.53125 C 1396.828125 1286.929688 1395.144531 1285.003906 1393.496094 1283.066406 C 1387.859375 1276.125 1383.5625 1268.425781 1379.734375 1260.507812 C 1378.710938 1266.222656 1377.484375 1271.902344 1375.882812 1277.535156 C 1374.859375 1280.855469 1373.753906 1284.1875 1371.828125 1287.328125 C 1371.394531 1288.121094 1370.707031 1288.84375 1370.058594 1289.566406 L 1368.828125 1290.539062 C 1368.433594 1290.769531 1368.035156 1290.9375 1367.625 1291.140625 C 1366.011719 1291.863281 1364.460938 1292.777344 1362.785156 1293.332031 C 1356.105469 1295.84375 1348.992188 1296.277344 1342.058594 1296.3125 C 1328.117188 1296.085938 1314.480469 1293.160156 1301.238281 1289.382812 C 1278.210938 1282.5625 1256.109375 1273.226562 1234.503906 1262.964844 C 1231.203125 1271.085938 1226.90625 1278.738281 1221.921875 1285.941406 C 1216.664062 1293.5 1210.476562 1300.417969 1203.601562 1306.601562 C 1196.703125 1312.773438 1188.6875 1317.667969 1180.238281 1321.421875 C 1171.785156 1325.34375 1162.480469 1326.789062 1153.359375 1327.558594 C 1152.996094 1327.582031 1152.671875 1327.34375 1152.609375 1326.980469 C 1152.550781 1326.609375 1152.804688 1326.246094 1153.175781 1326.175781 Z M 1205.890625 1081.628906 C 1208.644531 1082.386719 1210.28125 1085.285156 1210.511719 1087.71875 C 1210.824219 1090.242188 1210.511719 1092.675781 1209.851562 1095.03125 C 1209.777344 1095.332031 1209.476562 1095.523438 1209.164062 1095.453125 C 1208.851562 1095.394531 1208.644531 1095.078125 1208.71875 1094.753906 L 1208.71875 1094.730469 C 1209.1875 1092.515625 1209.332031 1090.136719 1208.910156 1087.992188 C 1208.5 1085.839844 1207.25 1084.023438 1205.261719 1083.601562 C 1200.859375 1082.640625 1196.054688 1081.761719 1191.46875 1080.847656 L 1163.699219 1075.097656 L 1136.023438 1068.949219 C 1127.199219 1066.9375 1118.414062 1064.820312 1109.636719 1062.621094 C 1109.300781 1062.980469 1108.808594 1063.183594 1108.277344 1063.078125 C 1101.296875 1061.65625 1094.074219 1061.332031 1086.96875 1062.164062 C 1083.429688 1062.621094 1079.890625 1063.210938 1076.425781 1064.195312 C 1072.972656 1065.160156 1069.5625 1066.363281 1066.242188 1067.816406 C 1065.976562 1067.9375 1065.652344 1067.839844 1065.496094 1067.589844 C 1065.328125 1067.3125 1065.421875 1066.949219 1065.699219 1066.78125 C 1068.867188 1064.871094 1072.25 1063.292969 1075.761719 1062.066406 C 1079.277344 1060.875 1082.902344 1059.902344 1086.609375 1059.382812 C 1092.761719 1058.480469 1099.066406 1058.542969 1105.230469 1059.550781 C 1104.785156 1059.289062 1104.304688 1059.035156 1103.835938 1058.746094 C 1102.125 1057.757812 1100.355469 1056.855469 1098.527344 1056.085938 C 1094.867188 1054.546875 1091.039062 1053.367188 1087.089844 1052.621094 C 1086.753906 1052.5625 1086.5 1052.25 1086.523438 1051.886719 C 1086.550781 1051.503906 1086.886719 1051.214844 1087.273438 1051.238281 C 1091.386719 1051.527344 1095.515625 1052.355469 1099.429688 1053.800781 C 1101.390625 1054.511719 1103.304688 1055.339844 1105.171875 1056.292969 C 1106.074219 1056.761719 1106.988281 1057.183594 1108.011719 1057.941406 C 1108.976562 1058.613281 1109.804688 1059.9375 1109.988281 1061.199219 C 1118.882812 1062.8125 1127.753906 1064.496094 1136.589844 1066.289062 L 1164.335938 1072.089844 L 1192 1078.296875 C 1196.632812 1079.414062 1201.109375 1080.367188 1205.890625 1081.628906 Z M 1006.320312 1172.367188 L 1114.5625 1187.863281 C 1132.605469 1190.464844 1150.660156 1192.929688 1168.730469 1194.976562 C 1173.253906 1195.527344 1177.769531 1195.902344 1182.285156 1196.25 C 1183.402344 1196.335938 1184.511719 1196.3125 1185.617188 1196.347656 L 1187.292969 1196.382812 L 1188.121094 1196.394531 L 1188.796875 1196.296875 C 1190.578125 1195.867188 1192.226562 1194.347656 1193.574219 1192.675781 C 1196.332031 1189.273438 1198.316406 1185.144531 1200.097656 1181.019531 C 1200.976562 1178.949219 1201.796875 1176.832031 1202.542969 1174.691406 L 1203.613281 1171.476562 C 1203.925781 1170.46875 1204.300781 1169.132812 1204.492188 1168.410156 L 1204.578125 1168.074219 C 1204.636719 1167.808594 1204.902344 1167.628906 1205.179688 1167.664062 C 1205.492188 1167.710938 1205.695312 1167.988281 1205.660156 1168.289062 C 1205.457031 1169.804688 1205.144531 1170.648438 1204.84375 1171.839844 L 1203.867188 1175.136719 C 1203.191406 1177.324219 1202.433594 1179.492188 1201.617188 1181.632812 C 1199.917969 1185.902344 1198.066406 1190.152344 1195.199219 1193.964844 C 1193.753906 1195.804688 1191.984375 1197.707031 1189.300781 1198.453125 L 1188.277344 1198.621094 L 1185.652344 1198.621094 C 1184.488281 1198.609375 1183.308594 1198.65625 1182.164062 1198.597656 C 1177.589844 1198.320312 1173.003906 1198.03125 1168.464844 1197.5625 C 1150.277344 1195.828125 1132.21875 1193.339844 1114.140625 1190.910156 C 1096.082031 1188.320312 1078.050781 1185.675781 1060.042969 1182.8125 C 1042.035156 1179.960938 1024.050781 1176.941406 1006.101562 1173.753906 C 1005.730469 1173.679688 1005.476562 1173.34375 1005.523438 1172.957031 C 1005.585938 1172.585938 1005.933594 1172.320312 1006.320312 1172.367188 Z M 1185.351562 1188.464844 C 1185.59375 1188.671875 1185.617188 1189.03125 1185.414062 1189.273438 C 1185.207031 1189.523438 1184.847656 1189.5625 1184.59375 1189.355469 C 1176.445312 1182.65625 1171.367188 1173.308594 1167.527344 1163.789062 C 1163.78125 1154.164062 1161.554688 1144.023438 1160.242188 1133.832031 C 1158.894531 1123.472656 1160.808594 1112.464844 1166.660156 1103.585938 C 1169.609375 1099.195312 1173.6875 1095.464844 1178.527344 1093.238281 C 1183.390625 1091.039062 1188.773438 1090.449219 1193.9375 1090.855469 C 1194.296875 1090.894531 1194.585938 1091.195312 1194.574219 1091.566406 C 1194.574219 1091.953125 1194.25 1092.265625 1193.863281 1092.253906 L 1193.851562 1092.253906 C 1188.84375 1092.132812 1183.835938 1093.011719 1179.515625 1095.273438 C 1175.144531 1097.449219 1171.535156 1100.9375 1168.945312 1105.078125 C 1163.746094 1113.390625 1161.902344 1123.714844 1163.289062 1133.460938 C 1164.421875 1143.492188 1166.609375 1153.382812 1169.957031 1162.863281 C 1171.679688 1167.59375 1173.699219 1172.210938 1176.21875 1176.554688 C 1177.046875 1178 1177.949219 1179.417969 1178.878906 1180.8125 C 1180.007812 1180.839844 1181.140625 1180.730469 1182.03125 1180.332031 C 1183.066406 1179.863281 1183.921875 1179.152344 1184.605469 1178.179688 C 1185.351562 1177.253906 1185.871094 1176.050781 1186.4375 1174.835938 C 1186.964844 1173.597656 1187.363281 1172.273438 1187.953125 1170.925781 L 1187.964844 1170.890625 C 1188.0625 1170.660156 1188.277344 1170.492188 1188.554688 1170.46875 C 1188.941406 1170.429688 1189.289062 1170.71875 1189.324219 1171.105469 C 1189.410156 1171.863281 1189.363281 1172.609375 1189.375 1173.378906 C 1189.3125 1174.136719 1189.144531 1174.882812 1189.035156 1175.652344 C 1188.699219 1177.167969 1188.097656 1178.695312 1187.0625 1180.042969 C 1186.050781 1181.378906 1184.5 1182.535156 1182.742188 1182.835938 C 1181.898438 1182.992188 1181.066406 1182.992188 1180.285156 1182.847656 C 1181.789062 1184.867188 1183.4375 1186.769531 1185.292969 1188.40625 Z M 1462.578125 1038.917969 C 1462.9375 1033.867188 1463.335938 1028.8125 1463.925781 1023.757812 C 1463.960938 1023.46875 1464.191406 1023.253906 1464.492188 1023.242188 C 1464.816406 1023.230469 1465.09375 1023.480469 1465.105469 1023.808594 C 1465.261719 1028.882812 1465.238281 1033.960938 1465.179688 1039.027344 C 1465.117188 1044.105469 1464.902344 1049.167969 1464.769531 1054.234375 C 1464.503906 1059.300781 1464.300781 1064.363281 1463.960938 1069.417969 C 1463.613281 1074.484375 1463.238281 1079.535156 1462.660156 1084.589844 C 1462.625 1084.925781 1462.335938 1085.203125 1461.988281 1085.203125 C 1461.601562 1085.214844 1461.277344 1084.914062 1461.265625 1084.527344 C 1461.109375 1079.453125 1461.15625 1074.375 1461.242188 1069.308594 C 1461.324219 1064.230469 1461.542969 1059.179688 1461.699219 1054.101562 C 1462 1049.046875 1462.203125 1043.984375 1462.578125 1038.917969 Z M 1472.21875 979.460938 C 1472.171875 979.832031 1471.835938 980.109375 1471.460938 980.074219 C 1471.078125 980.027344 1470.800781 979.6875 1470.835938 979.304688 C 1471.738281 970.085938 1472.808594 960.871094 1474.253906 951.703125 C 1475.734375 942.546875 1477.578125 933.464844 1479.296875 924.394531 C 1480.972656 915.332031 1482.609375 906.238281 1482.5 897.167969 C 1482.464844 892.644531 1481.898438 888.15625 1480.550781 883.933594 C 1479.105469 879.613281 1477.371094 875.390625 1475.410156 871.277344 C 1467.609375 854.683594 1455.703125 840.390625 1443.425781 826.652344 C 1431.195312 812.875 1418.027344 799.507812 1408.46875 783.449219 C 1408.3125 783.171875 1408.398438 782.820312 1408.660156 782.652344 C 1408.9375 782.484375 1409.300781 782.558594 1409.480469 782.835938 C 1414.414062 790.605469 1420.339844 797.71875 1426.5 804.5625 C 1432.652344 811.445312 1439.054688 818.109375 1445.351562 824.90625 C 1457.90625 838.492188 1470.003906 852.988281 1478.179688 869.953125 C 1480.210938 874.175781 1481.945312 878.542969 1483.425781 883.007812 C 1484.871094 887.625 1485.425781 892.414062 1485.449219 897.128906 C 1485.484375 906.597656 1483.859375 915.839844 1481.980469 924.921875 C 1478.09375 943.03125 1474.472656 961.089844 1472.21875 979.460938 Z M 1396.613281 1095.550781 C 1396.9375 1095.5625 1397.203125 1095.824219 1397.191406 1096.152344 C 1397.152344 1099.484375 1396.925781 1102.792969 1396.671875 1106.101562 C 1396.429688 1109.398438 1396.058594 1112.695312 1395.671875 1115.976562 C 1395.25 1119.261719 1394.832031 1122.546875 1394.265625 1125.820312 C 1393.722656 1129.09375 1393.144531 1132.351562 1392.375 1135.589844 C 1392.300781 1135.902344 1392.015625 1136.128906 1391.675781 1136.128906 C 1391.292969 1136.117188 1390.976562 1135.804688 1390.992188 1135.421875 C 1391.039062 1132.089844 1391.28125 1128.78125 1391.554688 1125.484375 C 1391.820312 1122.175781 1392.21875 1118.890625 1392.617188 1115.59375 C 1393.0625 1112.320312 1393.507812 1109.035156 1394.085938 1105.777344 C 1394.648438 1102.503906 1395.238281 1099.242188 1396.023438 1096.007812 C 1396.09375 1095.742188 1396.324219 1095.550781 1396.613281 1095.550781 Z M 1310.507812 741.171875 C 1310.710938 740.917969 1311.085938 740.871094 1311.339844 741.074219 L 1349.605469 771.066406 C 1362.351562 781.03125 1375.101562 791.085938 1388.679688 799.75 C 1395.710938 803.925781 1402.113281 809.445312 1407.21875 815.933594 C 1412.273438 822.464844 1416.195312 829.886719 1418.542969 837.828125 C 1419.75 841.773438 1420.625 845.839844 1421.046875 849.957031 C 1421.457031 854.035156 1421.710938 858.066406 1422.046875 862.121094 C 1422.421875 866.175781 1422.578125 870.230469 1422.746094 874.285156 C 1422.925781 878.351562 1423.15625 882.40625 1423.144531 886.472656 C 1423.746094 919.015625 1419.976562 951.453125 1414.667969 983.417969 C 1409.382812 1015.433594 1402.773438 1047.148438 1397.453125 1079.089844 C 1397.394531 1079.464844 1397.035156 1079.726562 1396.660156 1079.667969 C 1396.273438 1079.621094 1396.011719 1079.257812 1396.070312 1078.875 C 1398.464844 1062.847656 1401.125 1046.847656 1403.871094 1030.882812 C 1406.699219 1014.929688 1409.613281 999 1412.164062 983.007812 C 1417.28125 951.078125 1420.820312 918.824219 1420.074219 886.519531 C 1420.109375 882.476562 1419.917969 878.445312 1419.761719 874.414062 C 1419.617188 870.386719 1419.496094 866.34375 1419.144531 862.324219 C 1418.832031 858.304688 1418.617188 854.238281 1418.230469 850.257812 C 1417.859375 846.3125 1417.039062 842.414062 1415.921875 838.609375 C 1413.71875 830.984375 1409.984375 823.824219 1405.183594 817.519531 C 1400.285156 811.238281 1394.265625 805.957031 1387.390625 801.796875 C 1360.199219 783.773438 1335.96875 762.152344 1310.605469 741.988281 C 1310.351562 741.796875 1310.316406 741.421875 1310.507812 741.171875 Z M 1138.40625 979.542969 C 1139.046875 977.304688 1139.648438 975.042969 1140.367188 972.78125 C 1140.441406 972.542969 1140.671875 972.363281 1140.921875 972.363281 C 1141.261719 972.363281 1141.523438 972.625 1141.523438 972.953125 C 1141.546875 975.359375 1141.296875 977.726562 1140.945312 980.097656 C 1140.609375 982.46875 1140.054688 984.789062 1139.429688 987.101562 C 1138.769531 989.398438 1138.023438 991.671875 1137.070312 993.875 C 1136.144531 996.0625 1135.121094 998.230469 1133.832031 1000.261719 C 1133.675781 1000.515625 1133.363281 1000.648438 1133.0625 1000.574219 C 1132.6875 1000.464844 1132.460938 1000.082031 1132.558594 999.707031 C 1133.148438 997.421875 1133.855469 995.183594 1134.507812 992.945312 L 1136.46875 986.257812 Z M 1152.949219 937.386719 C 1152.863281 937.746094 1152.492188 937.964844 1152.128906 937.890625 C 1151.757812 937.808594 1151.515625 937.433594 1151.589844 937.0625 C 1155.152344 920.710938 1157.136719 904.046875 1157.59375 887.375 C 1158.039062 870.699219 1156.992188 853.976562 1154.164062 837.539062 C 1151.480469 821.105469 1147.328125 804.777344 1139.828125 789.957031 C 1136.097656 782.558594 1131.449219 775.617188 1125.839844 769.515625 C 1120.277344 763.367188 1113.742188 758.0625 1106.375 754.1875 C 1106.097656 754.042969 1105.976562 753.707031 1106.121094 753.417969 C 1106.253906 753.128906 1106.617188 752.996094 1106.90625 753.140625 C 1114.546875 756.8125 1121.433594 762.007812 1127.34375 768.097656 C 1133.242188 774.21875 1138.152344 781.257812 1142.125 788.765625 C 1150.109375 803.816406 1154.308594 820.457031 1157.199219 837.035156 C 1159.953125 853.6875 1161.027344 870.613281 1160.328125 887.46875 C 1159.628906 904.324219 1157.160156 921.085938 1152.949219 937.386719 Z M 1326.976562 719.261719 L 1326.988281 719.25 C 1327.105469 719.140625 1327.25 719.082031 1327.421875 719.082031 C 1327.769531 719.082031 1328.058594 719.371094 1328.058594 719.71875 C 1328.058594 720.667969 1327.792969 721.558594 1327.433594 722.414062 C 1327.09375 723.269531 1326.554688 724.027344 1325.976562 724.734375 C 1325.363281 725.421875 1324.675781 726.046875 1323.871094 726.503906 C 1323.085938 726.972656 1322.230469 727.359375 1321.292969 727.492188 C 1321.113281 727.515625 1320.921875 727.464844 1320.75 727.359375 C 1320.414062 727.117188 1320.34375 726.636719 1320.582031 726.300781 L 1320.59375 726.277344 C 1321.101562 725.566406 1321.640625 724.988281 1322.148438 724.398438 L 1323.675781 722.691406 L 1325.242188 721.007812 C 1325.785156 720.441406 1326.3125 719.851562 1326.976562 719.261719 Z M 1193.683594 650.082031 C 1193.503906 650.71875 1193.273438 651.285156 1193.117188 651.886719 C 1192.914062 652.488281 1192.78125 653.089844 1192.601562 653.703125 C 1192.429688 654.328125 1192.3125 654.964844 1192.09375 655.710938 L 1192.082031 655.773438 C 1192.035156 655.929688 1191.9375 656.074219 1191.792969 656.167969 C 1191.457031 656.421875 1190.976562 656.351562 1190.734375 656.011719 C 1190.191406 655.292969 1189.964844 654.425781 1189.878906 653.546875 C 1189.769531 652.667969 1189.914062 651.789062 1190.179688 650.960938 C 1190.46875 650.128906 1190.878906 649.335938 1191.492188 648.699219 C 1192.070312 648.046875 1192.78125 647.507812 1193.636719 647.242188 C 1193.769531 647.195312 1193.910156 647.195312 1194.042969 647.253906 C 1194.382812 647.375 1194.550781 647.746094 1194.429688 648.085938 L 1194.417969 648.109375 Z M 1250.644531 711.523438 C 1258.792969 714.964844 1267.125 718.035156 1275.527344 720.921875 C 1275.816406 721.03125 1275.984375 721.332031 1275.910156 721.632812 C 1275.828125 721.945312 1275.515625 722.136719 1275.191406 722.050781 C 1266.535156 719.875 1258.023438 717.132812 1249.667969 713.929688 C 1241.304688 710.765625 1233.167969 707.027344 1225.171875 703.019531 C 1217.300781 698.796875 1209.34375 694.644531 1202.183594 689.027344 C 1198.65625 686.175781 1195.308594 683.011719 1192.671875 679.234375 C 1190.023438 675.492188 1188.171875 671.125 1187.59375 666.578125 C 1187.542969 666.214844 1187.785156 665.867188 1188.144531 665.808594 C 1188.53125 665.734375 1188.890625 665.976562 1188.976562 666.359375 C 1190.734375 674.949219 1196.910156 681.722656 1203.84375 686.875 C 1210.847656 692.058594 1218.734375 696.210938 1226.582031 700.277344 C 1234.417969 704.402344 1242.472656 708.085938 1250.644531 711.523438 Z M 1325.074219 674.960938 C 1328.023438 676.671875 1330.550781 679.101562 1332.574219 681.90625 C 1334.617188 684.695312 1336.0625 687.933594 1336.894531 691.324219 C 1337.675781 694.730469 1337.832031 698.265625 1337.253906 701.683594 C 1336.714844 705.101562 1335.535156 708.421875 1333.65625 711.273438 C 1333.488281 711.550781 1333.136719 711.667969 1332.824219 711.550781 C 1332.464844 711.40625 1332.285156 711.007812 1332.414062 710.648438 C 1333.558594 707.613281 1334.304688 704.5 1334.558594 701.359375 C 1334.789062 698.21875 1334.605469 695.066406 1333.898438 692.023438 C 1333.210938 688.980469 1331.984375 686.066406 1330.394531 683.335938 C 1328.792969 680.617188 1326.746094 678.140625 1324.375 675.902344 C 1324.183594 675.71875 1324.121094 675.417969 1324.265625 675.179688 C 1324.433594 674.890625 1324.796875 674.792969 1325.074219 674.960938 Z M 1299.480469 722.667969 C 1299.097656 722.714844 1298.746094 722.449219 1298.6875 722.078125 C 1297.316406 712.558594 1293.945312 703.429688 1289.042969 695.269531 C 1284.363281 687.042969 1276.585938 681.144531 1268.484375 676.082031 C 1260.371094 670.921875 1251.644531 666.613281 1243.277344 661.582031 C 1234.925781 656.601562 1226.640625 650.949219 1220.382812 643.308594 C 1220.191406 643.066406 1220.203125 642.71875 1220.441406 642.503906 C 1220.671875 642.285156 1221.042969 642.296875 1221.273438 642.539062 C 1224.546875 646.050781 1228.277344 649.105469 1232.25 651.800781 C 1236.1875 654.558594 1240.339844 657.011719 1244.554688 659.359375 C 1253.015625 664.027344 1261.71875 668.382812 1270.097656 673.496094 C 1278.34375 678.644531 1286.554688 684.984375 1291.476562 693.851562 C 1296.328125 702.476562 1299.398438 712.113281 1300.082031 721.921875 C 1300.09375 722.28125 1299.84375 722.605469 1299.480469 722.667969 Z M 1291.246094 598.011719 C 1286.011719 591.40625 1281.230469 584.367188 1277.707031 576.644531 C 1274.226562 568.96875 1271.792969 560.460938 1272.710938 551.929688 C 1272.746094 551.628906 1273 551.402344 1273.3125 551.402344 C 1273.636719 551.402344 1273.890625 551.679688 1273.890625 552.003906 L 1273.890625 552.027344 C 1273.746094 560.246094 1276.417969 568.210938 1280.050781 575.523438 C 1283.734375 582.851562 1288.382812 589.710938 1293.632812 596.0625 C 1298.78125 602.511719 1304.597656 608.429688 1310.773438 613.917969 C 1316.949219 619.390625 1323.554688 624.417969 1330.742188 628.523438 C 1331.042969 628.703125 1331.1875 629.097656 1331.03125 629.425781 C 1330.875 629.773438 1330.453125 629.929688 1330.117188 629.773438 C 1322.425781 626.234375 1315.46875 621.351562 1308.992188 615.972656 C 1302.527344 610.570312 1296.605469 604.53125 1291.246094 598.011719 Z M 1267.96875 511.867188 C 1269.542969 513.648438 1271.46875 515.128906 1273.613281 516.308594 C 1273.902344 516.476562 1274.046875 516.824219 1273.9375 517.148438 C 1273.804688 517.523438 1273.40625 517.714844 1273.046875 517.582031 C 1270.566406 516.714844 1268.292969 515.273438 1266.328125 513.480469 C 1264.429688 511.601562 1262.730469 509.59375 1261.71875 506.8125 C 1261.238281 505.429688 1261.152344 503.710938 1261.753906 502.171875 C 1262.285156 500.65625 1263.742188 499.164062 1265.546875 498.863281 C 1266.980469 498.585938 1268.339844 498.886719 1269.519531 499.4375 C 1268.703125 497.105469 1267.652344 494.953125 1266.027344 493.265625 C 1264.71875 491.917969 1263.042969 490.96875 1261.226562 490.777344 C 1259.394531 490.558594 1257.433594 491.113281 1256.121094 492.472656 C 1255.929688 492.675781 1255.605469 492.726562 1255.363281 492.570312 C 1255.097656 492.390625 1255.015625 492.015625 1255.195312 491.75 C 1256.519531 489.753906 1258.988281 488.792969 1261.320312 488.78125 C 1263.742188 488.765625 1266.015625 489.921875 1267.738281 491.4375 C 1269.507812 492.964844 1270.796875 494.953125 1271.675781 496.996094 C 1272.578125 499.042969 1273.167969 501.136719 1273.757812 503.144531 C 1273.890625 503.664062 1273.757812 504.25 1273.347656 504.648438 C 1272.757812 505.214844 1271.808594 505.203125 1271.230469 504.601562 C 1269.496094 502.832031 1267.761719 501.472656 1266.113281 501.785156 C 1264.667969 501.964844 1263.765625 504.058594 1264.402344 505.996094 C 1264.96875 508.015625 1266.402344 510.136719 1267.96875 511.867188 Z M 1226.414062 551.328125 C 1226.980469 550.703125 1227.472656 550.007812 1227.992188 549.332031 C 1228.195312 526.4375 1206.730469 502.265625 1220.730469 466.066406 C 1220.730469 466.066406 1258.925781 420.816406 1335.4375 419.515625 C 1335.496094 419.40625 1335.605469 419.324219 1335.726562 419.273438 C 1336.039062 419.167969 1336.375 419.324219 1336.484375 419.625 C 1337.519531 422.414062 1338.050781 425.375 1338.21875 428.359375 C 1338.410156 431.355469 1338.132812 434.363281 1337.542969 437.308594 C 1336.917969 440.246094 1335.96875 443.132812 1334.59375 445.792969 C 1333.246094 448.476562 1331.585938 450.988281 1329.515625 453.132812 C 1329.296875 453.359375 1328.949219 453.417969 1328.660156 453.25 C 1328.324219 453.058594 1328.203125 452.636719 1328.394531 452.300781 C 1329.816406 449.808594 1331.089844 447.296875 1332.113281 444.683594 C 1333.113281 442.074219 1333.957031 439.414062 1334.523438 436.671875 C 1335.136719 433.953125 1335.460938 431.175781 1335.617188 428.382812 C 1335.714844 426.300781 1335.640625 424.207031 1335.496094 422.101562 C 1331.417969 436.15625 1319.308594 467.640625 1291.753906 471.730469 L 1282.628906 505.007812 C 1282.628906 505.007812 1275.828125 466.4375 1257.675781 472.488281 C 1239.511719 478.539062 1231.191406 523.152344 1278.847656 536.773438 L 1261.007812 536.773438 L 1260 538.503906 C 1260.203125 539.671875 1260.335938 540.863281 1260.40625 542.054688 C 1260.550781 544.460938 1260.335938 546.890625 1259.890625 549.273438 C 1259.421875 551.640625 1258.710938 553.964844 1257.664062 556.152344 C 1256.640625 558.332031 1255.375 560.414062 1253.773438 562.195312 C 1253.570312 562.421875 1253.246094 562.507812 1252.957031 562.375 C 1252.59375 562.207031 1252.4375 561.796875 1252.59375 561.4375 C 1253.535156 559.332031 1254.425781 557.261719 1255.136719 555.132812 C 1255.832031 553.003906 1256.445312 550.859375 1256.878906 548.671875 C 1257.324219 546.589844 1257.578125 544.484375 1257.769531 542.355469 L 1244.675781 564.960938 C 1237.847656 576.738281 1223.65625 582.070312 1210.765625 577.679688 C 1210.765625 577.679688 1224.859375 566.078125 1227.507812 554.046875 C 1226.027344 555.890625 1224.320312 557.550781 1222.394531 558.910156 C 1220.046875 560.523438 1217.457031 561.796875 1214.699219 562.53125 C 1211.96875 563.277344 1209.089844 563.578125 1206.3125 563.191406 C 1205.996094 563.144531 1205.746094 562.902344 1205.695312 562.578125 C 1205.648438 562.195312 1205.925781 561.84375 1206.3125 561.796875 C 1208.933594 561.449219 1211.460938 560.859375 1213.859375 559.945312 C 1216.253906 559.003906 1218.539062 557.839844 1220.636719 556.382812 C 1222.765625 554.949219 1224.667969 553.230469 1226.414062 551.328125 Z M 1439.804688 503.121094 C 1439.5625 503.375 1439.164062 503.410156 1438.875 503.191406 C 1438.574219 502.953125 1438.515625 502.507812 1438.753906 502.207031 C 1442.691406 497.058594 1445.398438 491.066406 1446.6875 484.796875 C 1447.964844 478.554688 1447.917969 472.007812 1446.207031 465.894531 C 1443.523438 455.753906 1436.566406 446.945312 1427.488281 441.375 C 1434.277344 449.917969 1441.488281 461.867188 1442.269531 474.761719 C 1443.257812 491.03125 1429.449219 503.121094 1419.722656 509.558594 C 1420.179688 499.523438 1421.542969 481.667969 1422.433594 475.605469 C 1424.585938 461 1423.636719 447.128906 1420.085938 434.484375 C 1420.324219 434.578125 1420.566406 434.652344 1420.820312 434.734375 L 1420.769531 433.710938 C 1421.988281 434.976562 1423.359375 436.46875 1424.769531 438.105469 C 1430.113281 440.125 1434.988281 443.410156 1439.007812 447.523438 C 1443.773438 452.386719 1447.289062 458.484375 1449.167969 465.089844 C 1450.925781 471.730469 1450.972656 478.78125 1449.335938 485.398438 C 1447.710938 492.015625 1444.484375 498.25 1439.804688 503.121094 Z M 1333.390625 565.007812 C 1334.5 565.671875 1335.496094 566.378906 1336.519531 567.03125 C 1337.566406 567.65625 1338.566406 568.316406 1339.613281 568.90625 C 1340.636719 569.519531 1341.707031 570.074219 1342.78125 570.664062 L 1346.113281 572.382812 C 1346.296875 572.492188 1346.425781 572.671875 1346.441406 572.890625 C 1346.464844 573.226562 1346.199219 573.527344 1345.863281 573.539062 C 1344.5 573.636719 1343.152344 573.429688 1341.851562 573.09375 C 1340.527344 572.769531 1339.277344 572.214844 1338.085938 571.578125 C 1336.917969 570.890625 1335.785156 570.121094 1334.824219 569.160156 C 1333.859375 568.210938 1332.980469 567.175781 1332.355469 565.949219 C 1332.246094 565.730469 1332.246094 565.453125 1332.390625 565.238281 C 1332.597656 564.902344 1333.054688 564.792969 1333.390625 565.007812 Z M 1359.789062 563.386719 C 1360.921875 563.398438 1361.992188 563.203125 1362.871094 562.640625 C 1363.761719 562.074219 1364.460938 561.195312 1364.542969 560.171875 L 1364.542969 560.136719 C 1364.582031 559.847656 1364.808594 559.621094 1365.109375 559.605469 C 1365.433594 559.582031 1365.710938 559.835938 1365.722656 560.160156 C 1365.878906 563.371094 1362.546875 565.335938 1359.898438 565.453125 C 1358.523438 565.574219 1357.226562 565.476562 1355.960938 565.335938 C 1354.699219 565.214844 1353.421875 565.082031 1352.167969 564.839844 C 1347.113281 564.023438 1342.214844 562.375 1337.578125 560.183594 C 1333.019531 557.875 1328.660156 555.082031 1324.878906 551.640625 C 1321.101562 548.203125 1317.765625 544.265625 1315.214844 539.886719 C 1315.046875 539.585938 1315.105469 539.203125 1315.382812 538.972656 C 1315.683594 538.746094 1316.128906 538.792969 1316.371094 539.09375 C 1319.453125 542.957031 1322.871094 546.492188 1326.648438 549.574219 C 1330.429688 552.664062 1334.546875 555.324219 1338.929688 557.417969 C 1343.261719 559.65625 1347.90625 561.207031 1352.664062 562.289062 C 1355.011719 562.820312 1357.539062 563.335938 1359.789062 563.386719 Z M 1374.175781 521.445312 C 1372.96875 518.242188 1371.394531 515.175781 1369.601562 512.179688 C 1369.46875 511.953125 1369.503906 511.640625 1369.707031 511.445312 C 1369.949219 511.21875 1370.320312 511.230469 1370.539062 511.46875 C 1373.007812 514.082031 1374.992188 517.148438 1376.570312 520.410156 C 1378.160156 523.671875 1379.230469 527.183594 1379.855469 530.769531 C 1380.15625 532.5625 1380.375 534.484375 1380.074219 536.507812 C 1379.773438 538.492188 1378.628906 540.683594 1376.796875 541.824219 C 1375.039062 542.980469 1373.007812 543.414062 1371.105469 543.425781 C 1369.191406 543.378906 1367.398438 543.015625 1365.6875 542.570312 L 1365.675781 542.570312 C 1365.351562 542.488281 1365.121094 542.1875 1365.144531 541.847656 C 1365.171875 541.464844 1365.507812 541.175781 1365.890625 541.199219 C 1369.371094 541.390625 1372.910156 541.476562 1375.210938 539.613281 C 1377.449219 537.914062 1377.4375 534.59375 1376.824219 531.273438 C 1376.292969 527.929688 1375.367188 524.644531 1374.175781 521.445312 Z M 1343.550781 493.253906 C 1343.828125 493.628906 1343.910156 494.132812 1343.730469 494.601562 C 1343.453125 495.347656 1342.625 495.722656 1341.878906 495.445312 L 1341.683594 495.371094 C 1340.625 494.976562 1339.421875 494.542969 1338.253906 494.242188 C 1337.085938 493.90625 1335.90625 493.664062 1334.726562 493.460938 C 1333.535156 493.316406 1332.355469 493.148438 1331.164062 493.183594 C 1329.984375 493.253906 1328.804688 493.398438 1327.613281 493.738281 L 1327.578125 493.75 C 1327.347656 493.808594 1327.09375 493.722656 1326.9375 493.53125 C 1326.746094 493.265625 1326.792969 492.894531 1327.058594 492.691406 C 1329.296875 490.980469 1332.285156 490.488281 1335.015625 490.621094 C 1335.207031 490.632812 1335.402344 490.667969 1335.59375 490.691406 C 1333.644531 489.765625 1331.539062 489.117188 1329.371094 488.875 C 1327.09375 488.636719 1324.761719 488.78125 1322.546875 489.429688 C 1320.316406 490.066406 1318.246094 491.234375 1316.394531 492.714844 C 1316.117188 492.929688 1315.707031 492.90625 1315.453125 492.652344 C 1315.179688 492.375 1315.179688 491.945312 1315.453125 491.667969 C 1317.273438 489.886719 1319.464844 488.441406 1321.90625 487.539062 C 1324.339844 486.601562 1326.988281 486.277344 1329.585938 486.457031 C 1332.1875 486.636719 1334.738281 487.300781 1337.121094 488.359375 C 1339.507812 489.476562 1341.78125 490.765625 1343.550781 493.253906 Z M 1333.667969 463.203125 C 1331.175781 464.1875 1328.769531 465.355469 1326.492188 466.761719 C 1324.195312 468.144531 1322.027344 469.757812 1319.898438 471.441406 C 1317.777344 473.140625 1315.769531 474.992188 1313.722656 476.867188 C 1313.480469 477.074219 1313.132812 477.109375 1312.855469 476.941406 C 1312.53125 476.722656 1312.433594 476.292969 1312.648438 475.964844 C 1314.179688 473.570312 1316.042969 471.40625 1318.089844 469.398438 C 1320.125 467.386719 1322.425781 465.632812 1324.90625 464.128906 C 1329.839844 461.179688 1335.726562 459.375 1341.46875 459.976562 C 1341.734375 460.011719 1341.949219 460.207031 1341.996094 460.480469 C 1342.046875 460.796875 1341.828125 461.109375 1341.503906 461.15625 C 1338.785156 461.589844 1336.171875 462.25 1333.667969 463.203125 Z M 1382.734375 470.851562 C 1382.433594 470.804688 1382.191406 470.5625 1382.15625 470.25 C 1382.105469 469.867188 1382.382812 469.515625 1382.769531 469.46875 C 1385.539062 469.144531 1388.425781 469.144531 1391.21875 469.855469 C 1394.023438 470.417969 1396.707031 471.621094 1399.105469 473.199219 C 1401.488281 474.773438 1403.652344 476.699219 1405.386719 478.949219 C 1407.144531 481.175781 1408.601562 483.59375 1409.515625 486.300781 C 1409.589844 486.542969 1409.503906 486.820312 1409.289062 486.976562 C 1409.023438 487.167969 1408.648438 487.09375 1408.46875 486.820312 L 1408.433594 486.78125 C 1405.4375 482.414062 1401.777344 478.515625 1397.417969 475.773438 C 1395.289062 474.355469 1392.941406 473.257812 1390.484375 472.476562 C 1388.054688 471.585938 1385.453125 471.273438 1382.792969 470.863281 Z M 1737.40625 1120.597656 C 1738.117188 1122.414062 1737.152344 1124.160156 1735.25 1124.496094 C 1733.351562 1124.820312 1731.230469 1123.617188 1730.507812 1121.800781 L 1709.167969 1067.277344 C 1708.457031 1065.460938 1709.429688 1063.714844 1711.332031 1063.390625 C 1713.234375 1063.066406 1715.355469 1064.269531 1716.0625 1066.085938 Z M 1754.152344 1117.6875 L 1732.808594 1063.171875 C 1732.097656 1061.355469 1733.0625 1059.613281 1734.964844 1059.273438 C 1736.863281 1058.949219 1738.984375 1060.152344 1739.695312 1061.96875 L 1761.035156 1116.496094 C 1761.746094 1118.3125 1760.785156 1120.042969 1758.882812 1120.382812 C 1756.980469 1120.707031 1754.859375 1119.503906 1754.152344 1117.6875 Z M 1777.792969 1113.585938 L 1756.449219 1059.058594 C 1755.726562 1057.242188 1756.703125 1055.496094 1758.605469 1055.171875 C 1760.507812 1054.835938 1762.625 1056.050781 1763.335938 1057.867188 L 1784.679688 1112.382812 C 1785.386719 1114.199219 1784.425781 1115.941406 1782.523438 1116.265625 C 1780.621094 1116.605469 1778.503906 1115.402344 1777.792969 1113.585938 Z M 1633.222656 799.363281 C 1625 800.796875 1620.96875 808.460938 1624.339844 816.257812 L 1644.632812 863.3125 L 1660.136719 893.882812 C 1660.136719 893.882812 1676.292969 912.324219 1679.820312 924.921875 C 1681.722656 931.71875 1680.816406 938.191406 1678.3125 941.394531 L 1693.78125 977.257812 C 1694.722656 979.425781 1696.46875 981.203125 1698.550781 982.359375 L 1719.496094 1035.863281 L 1692.640625 1040.53125 C 1683.175781 1042.179688 1677.699219 1050.15625 1679.722656 1059.347656 L 1694.324219 1125.734375 C 1696.851562 1137.214844 1709.816406 1145.71875 1721.625 1143.675781 L 1808.464844 1128.574219 C 1820.273438 1126.519531 1825.339844 1114.871094 1819.140625 1104.03125 L 1783.222656 1041.347656 C 1778.25 1032.675781 1767.621094 1027.5 1758.160156 1029.148438 L 1731.304688 1033.816406 L 1710.359375 980.300781 C 1711.332031 978.628906 1711.550781 976.5 1710.769531 974.296875 L 1695.359375 930.542969 C 1690.519531 927.101562 1683.503906 921.601562 1682.695312 918.078125 C 1681.457031 912.652344 1671.355469 896.3125 1669.839844 885.148438 C 1669.035156 879.214844 1668.515625 868.113281 1670.042969 858.628906 L 1653.347656 811.214844 C 1650.566406 803.3125 1641.445312 797.933594 1633.222656 799.363281 Z M 1469.59375 1217.859375 L 1447.6875 1173.066406 L 1378.628906 1173.066406 C 1372.824219 1173.066406 1368.132812 1168.375 1368.132812 1162.574219 C 1368.132812 1156.789062 1372.824219 1152.097656 1378.628906 1152.097656 L 1840.328125 1152.097656 C 1845.011719 1152.097656 1848.078125 1157.003906 1846.019531 1161.214844 L 1818.324219 1217.859375 C 1814.832031 1224.992188 1807.585938 1229.515625 1799.640625 1229.515625 L 1488.277344 1229.515625 C 1480.332031 1229.515625 1473.085938 1224.992188 1469.59375 1217.859375 Z M 1374.367188 1208.304688 C 1374.367188 1214.238281 1370.261719 1219.0625 1365.207031 1219.0625 C 1360.148438 1219.0625 1356.058594 1214.238281 1356.058594 1208.304688 C 1356.058594 1202.375 1360.148438 1197.5625 1365.207031 1197.5625 C 1370.261719 1197.5625 1374.367188 1202.375 1374.367188 1208.304688 Z M 1381.855469 1073.953125 C 1376.785156 1073.953125 1372.695312 1069.140625 1372.695312 1063.210938 C 1372.695312 1057.277344 1376.785156 1052.464844 1381.855469 1052.464844 C 1386.910156 1052.464844 1391.003906 1057.277344 1391.003906 1063.210938 C 1391.003906 1069.140625 1386.910156 1073.953125 1381.855469 1073.953125 Z M 1385.71875 959.703125 C 1380.664062 959.703125 1376.558594 954.890625 1376.558594 948.949219 C 1376.558594 943.019531 1380.664062 938.207031 1385.71875 938.207031 C 1390.773438 938.207031 1394.878906 943.019531 1394.878906 948.949219 C 1394.878906 954.890625 1390.773438 959.703125 1385.71875 959.703125 Z M 1380.433594 823.945312 C 1385.488281 823.945312 1389.59375 828.757812 1389.59375 834.699219 C 1389.59375 840.632812 1385.488281 845.445312 1380.433594 845.445312 C 1375.378906 845.445312 1371.273438 840.632812 1371.273438 834.699219 C 1371.273438 828.757812 1375.378906 823.945312 1380.433594 823.945312 Z M 1389.367188 491.015625 C 1392.183594 491.015625 1394.46875 494.074219 1394.769531 497.984375 C 1394.855469 497.996094 1394.925781 498.007812 1395.011719 498.019531 C 1395.855469 498.140625 1396.730469 498.128906 1397.660156 498.140625 C 1398.574219 498.140625 1399.523438 498.054688 1400.558594 498.054688 L 1400.597656 498.054688 C 1400.800781 498.054688 1401.003906 498.152344 1401.148438 498.320312 C 1401.414062 498.632812 1401.367188 499.101562 1401.054688 499.355469 C 1400.1875 500.078125 1399.164062 500.535156 1398.070312 500.835938 C 1396.972656 501.160156 1395.792969 501.21875 1394.613281 501.074219 C 1394.601562 501.0625 1394.589844 501.0625 1394.578125 501.0625 C 1393.890625 504.277344 1391.832031 506.621094 1389.367188 506.621094 C 1386.355469 506.621094 1383.914062 503.132812 1383.914062 498.8125 C 1383.914062 494.507812 1386.355469 491.015625 1389.367188 491.015625 Z M 1414.898438 432.714844 C 1416.582031 433.28125 1418.28125 433.84375 1419.976562 434.445312 C 1418.28125 433.84375 1416.582031 433.265625 1414.898438 432.703125 L 1414.898438 432.714844 "/>
</g>
</svg>
